<?xml version="1.0" encoding="utf-8"?>
<!-- Generator: Adobe Illustrator 19.2.0, SVG Export Plug-In . SVG Version: 6.00 Build 0)  -->
<svg version="1.1" id="Layer_1" xmlns="http://www.w3.org/2000/svg" xmlns:xlink="http://www.w3.org/1999/xlink" x="0px" y="0px"
	 viewBox="0 0 254.7 289.1" style="enable-background:new 0 0 254.7 289.1;" xml:space="preserve">
<style type="text/css">
	.st0{fill:#000000;}
</style>
<path class="st0" d="M141.7,67.2c1,1.1,2.5,2.9,3.8,4.5c14.7,8.3,32.6,15.7,43,17.4c0.8-1.5,4.7-6.2,5.3-11.3c0.7-5.1,9-7,9-7
	c-2.7-2.3-1.8-7.1-1.8-7.1c0.1,1.9,3.1,5.4,5.3,6s3.7,3.6,3.7,3.6c6.8-13.5-3.5-19.5-0.4-33.9c1.8-11.1,13.7-7.3,13.7-7.3
	c6.5,0,4-5.8,4-5.8l1.7,0.5c4.8,1.5,5.5-4.1,5.5-4.1c0.7,0,3.2,1.1,3.2,1.1c-3-7.2-9.5-3.5-11-3.3s0.6-1.8,0.6-1.8
	c5.2-3.8,10.7,0.6,10.7,0.6c5.7,1.8,5.5-4.1,5.5-4.1l3.4,0.3c-22.4-17.5-45,14.1-63.2,35.6C165.4,72.7,141.7,67.2,141.7,67.2z
	 M123.2,224.8c13.5-9.1,9.6-25.9-2.1-43.4c-11.6-17.5-6.3-19.1-6.3-19.1c0.2,3.3,5.1,9.7,5.1,9.7s10.5-17.3,24.2-23.6
	c18.4-8.1,21.4-26.4,21.4-26.4s-14.7,6.9-21.8-6.9c-5.7-11-7.5-13.6-14.7-19.2c-1.8-1.4-6-4.8-9.8-6.5c-1.7,5.9-9.6,12.3-17.2,12.2
	c1.9-2.4,3.3-6.5,0.1-11.5c-1.1,2.3-3.1,3.2-5.2,4.1c5.7,29.5-4.9,49.9-9.8,59.3c-5,9.7-23.6,15.8-34.9,9.2
	c-9.5-5.6-12.6-26.8-0.8-31.2c11.8-4.4,14.5-13.2,14.5-13.2c-0.9,1.3-5.9,1.9-5.9,1.9c11.6-6.5,7.7-19.5,7.7-19.5
	c-0.2,3.1-5,4.7-7.6,5.1s-5.8,3.1-5.8,3.1s10-17,4.6-32.6c-6.2-26.3-40-18-40-18C1.3,60.2,0,77.1,0,77.1c1.8-3.6,7.4-4,7.4-4
	C6.3,73.7-2.8,79.3,3,89.5s0.5,14.7,0.5,14.7s15.6-5.3,16.4-22c0.6-5.5-6.3-21,14.9-18.8s22.8,28.3,12.1,46.7
	c-10,17.2-18.6,53.2,5.4,61.5c17.2,6,27.1-1.5,27.1-1.5c-8.7,14.4-0.6,25.7,2.6,28.1c2.2,2.8,13.8,8.4,15.7,16.5
	c1.9,8.1,7.9,8.7,7.9,8.7c-7.9,1.2-9.5-5.3-9.5-5.3s-3.5,3.7-15.1,8.3s-9.3,19.4-9.3,19.4c0.2-2.3,5.3-4.5,5.3-4.5s-3.5,5.7-4,9
	c-0.5,3.2-0.3,8.5-0.3,8.5c1.1-0.1,6.5-4.5,6.5-4.5c-0.2,1,4,13.5,6.5,18.5c2.5,5.1-1.3,8.5,3.3,13.2c3.2,3.2,9.9,0,9.9,0
	c7.1,6.8,10.8-0.1,10.8-0.1l1.9,3.1c4.4-8.7-6.9-10.5-6.9-10.5c6.2-0.8,8.1,1.7,12.3,7.1c4.2,5.3,9.2,0,9.2,0l1.1,2.9
	c3-6.8-1.3-13.3-9.6-14.7c-9.3-1.6-17-6.9-18.5-8.7c-8.1-10-5.1-26.7-5.1-26.7C97,228.9,106.2,237.1,123.2,224.8L123.2,224.8z
	 M228.1,228.4c-11.7-2.9-23-3.2-30.5-6.5c-8.1-3.6-19-8.2-16.8-13.5c0.7-1.6,2.9-4.9,5-9c11.3-18.6,10.9-34.1-2.9-43.3
	c-13.2-8.9-40.1,10.6-40.1,10.6s-7,3.8-11.2-3.6l-8.9,12.2c0,0,9.9,16.8,10.2,19.3s8.8,3.2,14.9-1.3s15.8-5.9,19.6-4.6
	c1.2,0.4,2.4,0.5,3.7,0.5c0,0,5.1,0,7.8-3.3c0,0-2.5,5.5-9.1,6.2c0,0-6.2,15.8-7.1,19.3c-0.8,3.4-2.2,7.2,7.1,14.3
	c0,0,4.5,4.5,5.6,6.6s3.3,2.3,3.3,2.3s-2-4.4,0.1-6.4c0,0,1.6,8.7,7.2,8.7s6.5-0.8,6.5-0.8s-4.6-5-4.3-6.8c0,0,8.3,1.9,10.9,2.4
	c2.7,0.5,5.3,3.2,5.8,4.5s5,10,11.1,3.1c0,0,4.5,4.7,8.8,1l1.3,1.7c0,0,3.2-5.9-6.9-9.2c0,0,5.9-1,9.3,5.2c3.4,6.3,7.2,3,7.7,1.7
	c0,0,2,0.9,2,1.4C238.4,241.6,239.8,231.3,228.1,228.4L228.1,228.4z M238.6,85.6c-9.3,5.5-17.8,7.5-27.1,7.9
	c-32,1.6-64.4-18.2-64.4-18.2c2,3.2,1.2,9.5,1.2,9.5c-1.4-4.3-3.7-8.9-7.3-13.9c0,0-10.1-11.7-9.4-16.2c0,0,4.7,0.8,6.8,2.6
	c0,0,1.4-7,8.4-7.5h0.3c6.8-0.3,8.7,4.9,8.7,4.9s2.3-2.2,1.7-3.2c0,0,3.8-2.3,5.3-2.4h0.3c0,0,1.2-1.5,2.7-3.5c-0.9,0.5-2,0.9-3,1
	c-1.1,0.1-2-0.2-2.7-1c-1.7-2.2-8.6-0.3-10.9-1.5c-1.8-1.1,3.3-5.8,9.3-6.1c1.2-0.1,2.5,0.1,3.7,0.4c4.7,1.5,5.4,3.5,5.3,4.8
	c2.6-3.7,5.2-8,4.6-9.1c-1.1-2.2-2.5-5.2-2.5-5.2s4.5,0.6,4.7,1.5l2.9-4.1c0,0,0-0.5-1.2-0.6s-3.8-0.8-5.3-1.8
	c-1.4-1-10.4-4-14.7-3.7c0,0,1.2-3.5,0.8-4.3c-7.1-1.4-23.2-13.1-28.3-15.1c-3.4-0.8-10.2-0.6-15.1-0.4c-3.2,0.2-5.6,0.4-5.6,0.4
	l3.4,2.9c0,0-17,4.3-28.9,17.9C79,25.4,78,29.8,71.9,33.5c6.8,2.7,8.7,1.8,12.1,1.4C74.2,46,80.2,49.1,63.5,60.4
	c4.8,1.8,8.8,2.4,12.1,2.2c2.1-0.1,3.9-0.5,5.5-1c0.4,5.6,0.3,8.1-4.6,17.2c6,0.9,12-1.9,13.3-3.8c0,0.1,0.7,12.2-1.8,18.2
	c4.2-0.8,12-2.4,12.8-8.3c0,0,7.8,4.7,5.8,13c0,0,10.9-4.9,10.4-12.8c6.5,2.5,10.6,5.8,14.7,9.2c-0.5-30.2-49.5-39.3-13.8-62.1
	C85.3,56.5,137,60.7,136.3,97c8.1,9.5,8.5,23.8,21.8,23.3c7-0.2,14-5.2,15.9-9c4.1,2.1,5.5,6.7,5.5,6.7c1.4-4.2,5.6-4.7,6.6-4.7
	c-5.8,1.6-4.3,11.3-10.1,13.2c0.5,0.6,1.2,1,2.9,0.9c4.6-0.2,13.6-3.1,17.1-7.1c3.9-4.6,17.5-14.2,28.4-14.8c2.3-0.1,4.6,0.2,6.5,1
	c2.5,1.1,4.4,1.5,5.8,1.4c4.8-0.2,4-5.7,4-5.7h0.6c6.5-0.3,5-5.8,5-5.8l3.2-0.4c-1.5-2-3.9-2.5-6.2-2.3c-3.4,0.2-6.7,1.7-6.7,1.7
	c1.2-3.1,3.4-3.9,5.3-4c1.8-0.1,3.4,0.5,3.4,0.5c1.2,0.4,2.2,0.5,3.1,0.5c3.5-0.2,4-3.4,4-3.4l2.2,1.9
	C255.5,84.2,246.8,80.7,238.6,85.6L238.6,85.6z M143.5,15.8c0.8-0.7,5.5,2.6,6.2,3.1s-0.4,2.4-1,3.7c-0.6,1.2-0.8,1.8-0.7,3.1
	c0.1,1.4,0.3,2.1,0.3,2.1s-0.8-1.2-1.1-1.8c-0.4-0.7-1-2-1.5-2.5s-3.8-0.3-3.8-0.3l4.4-4.5L143.5,15.8L143.5,15.8z"/>
</svg>
