<?xml version="1.0" encoding="utf-8"?>
<!-- Generator: Adobe Illustrator 19.1.0, SVG Export Plug-In . SVG Version: 6.00 Build 0)  -->
<svg version="1.1" id="Layer_1" xmlns="http://www.w3.org/2000/svg" xmlns:xlink="http://www.w3.org/1999/xlink" x="0px" y="0px"
	 viewBox="0 0 822 649.7" style="enable-background:new 0 0 822 649.7;" xml:space="preserve">
<style type="text/css">
	.st0{fill:#FFFFFF;}
</style>
<g>
	<path class="st0" d="M367.6,509.6c0.2,0,0.4,0,0.5-0.1c0.3-0.3,1.1-1.2,1.3-1.5l0,0c0.1-0.2,0.1-0.4,0.1-0.5
		c-0.1-0.2-0.3-0.4-0.6-0.4c-0.2,0-0.3,0-0.4,0l0.1,0c-0.1,0-0.3,0.2-0.4,0.4c-0.2,0.4-0.5,0.9-0.7,1.5c-0.1,0.1-0.1,0.4,0,0.5
		C367.4,509.5,367.5,509.5,367.6,509.6z"/>
	<path class="st0" d="M364.5,480.9L364.5,480.9C364.5,480.9,364.5,480.9,364.5,480.9L364.5,480.9z"/>
	<path class="st0" d="M391.4,434.4L391.4,434.4L391.4,434.4c0.1,0,0.3-0.1,0.4,0.1c0,0,0,0,0,0c0,0.2-0.2,0.4-0.3,0.5l0,0
		c-0.1,0.1-0.2,0.3-0.2,0.4c0,0,0,0.1,0,0.1v0c0,0,0,0,0,0c0,0,0.1,0.1,0.1,0.1c0.1,0.1,0.2,0.1,0.4,0c0.2-0.1,0.6-0.3,0.8-0.7
		c0.1-0.2,0.2-0.4,0.2-0.6c0-0.1,0-0.2,0-0.3c-0.1-0.3-0.3-0.6-0.6-0.8c-0.3-0.1-0.6-0.2-0.8-0.1c-0.2,0.1-0.4,0.2-0.5,0.4
		c-0.1,0.1-0.1,0.3,0,0.5C390.8,434.2,391,434.4,391.4,434.4z"/>
	<path class="st0" d="M356.8,488.8c0.1,0,0.3,0,0.5-0.5c0.2-0.7,0.5-1,0.9-1.3c0.4-0.3,2.4-1.5,2.7-1.6c0.1,0,0.1,0,0.1,0l0,0
		c0.5,0.5,1.2,1.1,1.6,1.5c0.5,0.5,0.7,0.9,0.8,1.5c0,0.3,0.2,0.5,0.4,0.5c0,0,0.2,0,0.2,0c0.1-0.1,0.1-0.2,0.1-0.4c0,0,0-0.5,0-0.5
		l0-1l0.1-0.7l0-0.3c0,0,0,0,0,0c0-0.1-0.1-0.2-0.1-0.2c-0.1-0.1-0.2-0.1-0.2-0.2c-0.2,0-0.3,0.2-0.3,0.4c-0.1,0.2-0.2,0.3-0.2,0.3
		c0,0-0.1,0-0.3-0.1c-0.4-0.3-1-0.8-1.6-1.3c0.1-0.1,1-0.6,1.4-0.8l0.5-0.2c0.1-0.1,0.1-0.1,0.1-0.1c0,0,0.1,0.1,0.1,0.2l0,0
		c0,0.1,0.1,0.4,0.3,0.4c0.2,0,0.4-0.2,0.4-0.4c0,0,0-0.2,0-0.2l0.1-1.1l0.1-0.7l0.1-0.6c0,0,0,0,0-0.1c0-0.2,0-0.3-0.1-0.4
		l-0.2-0.1c-0.2,0-0.4,0.1-0.5,0.5l0,0.1c-0.2,0.5-0.3,0.8-0.9,1.2c-0.5,0.3-2.1,1.3-2.4,1.4c-0.1,0-0.1,0-0.1,0
		c-0.7-0.5-1.3-1.2-2.2-2c-0.4-0.4-0.5-0.9-0.6-1.5c0-0.2-0.2-0.4-0.4-0.4c-0.1,0-0.3,0.1-0.4,0.5v0l0,1.3l-0.1,1c0,0,0,0.1,0,0.1
		c0,0.1,0,0.2,0.1,0.3c0.1,0.1,0.1,0.1,0.2,0.1c0.2,0,0.3-0.1,0.5-0.3c0.2-0.3,0.2-0.3,0.3-0.2c0.2,0.1,1.1,0.8,1.9,1.5c0,0,0,0,0,0
		c-0.2,0.2-1.1,0.7-1.6,1l-0.6,0.3c0,0,0,0-0.1,0c0,0-0.1-0.1-0.1-0.2l0,0c-0.1-0.2-0.2-0.3-0.4-0.4c-0.1,0-0.2,0-0.2,0.1
		c-0.1,0.1-0.2,0.3-0.2,0.4l0,0.4l0,0.6c0,0.3-0.1,0.6-0.1,1l-0.1,0.8c0,0,0,0,0,0.1C356.5,488.7,356.7,488.8,356.8,488.8z"/>
	<path class="st0" d="M364,485.8C364,485.8,364,485.8,364,485.8C364,485.8,364,485.8,364,485.8L364,485.8z"/>
	<path class="st0" d="M418.2,434.5l0.4,0.1c0.2,0,0.3,0.1,0.3,0.2c0.1,0.1,0.1,0.2,0.1,0.4c0,0.2-0.4,1.3-0.6,1.9l-0.1,0.3
		c0,0-0.1,0.5,0,0.7c0.2,0.5,0.8,1.1,1.5,1.2c0.3,0,1,0,1.6-0.5c0.5-0.4,1.3-1.2,1.6-2.9c0-0.2,0.1-0.5,0.1-0.7
		c0-0.4-0.1-0.8-0.2-1.1c-0.1-0.2-0.2-0.5-0.5-0.5c-0.1,0-0.4,0-0.5,0.1c0,0,0,0.1,0,0.2c0.1,0.4,0.2,1.3,0.1,1.6
		c-0.2,1.4-0.7,1.9-1.1,2.2c-0.3,0.2-0.6,0.3-0.9,0.2c-0.3,0-0.5-0.3-0.6-0.3c0,0,0-0.1,0-0.2c0,0,0-0.1,0-0.1l0,0v0
		c0.1-0.7,0.5-1.9,0.8-2.5l0,0c0.1-0.1,0.2-0.5,0.2-0.7c-0.1-0.4-0.3-0.8-0.7-0.9c-0.7-0.1-1.5,0.4-1.7,0.8c0,0.1,0,0.3,0,0.4
		C418,434.5,418.1,434.5,418.2,434.5z"/>
	<path class="st0" d="M393.6,433.5c0.8,0,0.8,0,1.1,1l0.5,1.7c0.3,1,0.7,2.9,0.8,3.1c0,0.2,0,0.3-0.6,0.7c-0.2,0.1-0.3,0.4-0.3,0.5
		c0.1,0.2,0.3,0.2,0.6,0.2c0,0,0.5-0.2,0.5-0.2l0.9-0.3l0.4-0.1l1-0.2h0c0.1,0,0.3-0.2,0.4-0.3l0-0.2c0-0.1-0.1-0.3-0.5-0.3
		c-0.8,0-0.9,0-1.1-0.5l-0.2-0.8l-0.4-1.5l-0.4-1.4l-0.4-1.4c-0.1-0.6-0.2-0.7,0.5-1c0.1-0.1,0.3-0.3,0.3-0.5c0-0.1-0.1-0.2-0.2-0.2
		c-0.1-0.1-0.3-0.1-0.4,0l-0.4,0.1c-0.2,0.1-0.5,0.2-1,0.3c-0.4,0.1-0.7,0.2-1,0.2l-0.3,0.1c-0.2,0.1-0.4,0.2-0.4,0.3l0,0.2
		C393.1,433.4,393.3,433.5,393.6,433.5z"/>
	<path class="st0" d="M397.8,416.5c0.3,2.1,2.1,3.5,4.1,3.2c1.2-0.2,2-0.7,2.7-1.7l0-0.1l-1-0.8l0,0c-0.5,0.6-1,1-1.8,1.2
		c-1.3,0.2-2.4-0.7-2.6-2.1c-0.1-0.7,0.1-1.4,0.5-1.9c0.4-0.5,0.9-0.7,1.4-0.8c0.7-0.1,1.3,0.1,2,0.6l0.1,0l0.7-1.1l-0.1,0
		c-0.9-0.7-1.8-0.9-2.9-0.7C398.9,412.5,397.5,414.3,397.8,416.5L397.8,416.5z"/>
	<path class="st0" d="M364.4,436.6c0,0-1.5-1.8-1.6-1.9c0.1-0.1,1.1-0.9,1.1-0.9c0.1,0,2.9,0.8,2.9,0.8l1.3-1.1c0,0-3.1-0.8-3.2-0.8
		c0.3-0.4,0.4-0.9,0.4-1.3c0-0.5-0.2-1-0.6-1.4l0,0c-0.4-0.5-0.9-0.8-1.5-0.8c-0.7,0-1.4,0.2-2.1,0.8l-2.4,2.1l4.7,5.5L364.4,436.6z
		 M360.5,432.1c0.1-0.1,1.3-1.1,1.3-1.1c0.5-0.4,1.2-0.7,1.8-0.1l0,0c0,0,0,0,0,0c0.2,0.2,0.2,0.4,0.2,0.6c0,0,0,0.1,0,0.1
		c0,0.3-0.2,0.7-0.6,1c0,0-1.2,1-1.3,1.1C361.9,433.7,360.6,432.2,360.5,432.1z"/>
	<path class="st0" d="M353.9,442.2C353.9,442.2,353.9,442.2,353.9,442.2c0.8,0.7,1.7,1,2.6,1c1,0,1.9-0.5,2.6-1.3
		c1.4-1.6,1.3-3.9-0.2-5.3c-1.6-1.4-3.8-1.3-5.3,0.3c-0.7,0.7-1,1.6-1,2.6c0,0.1,0,0.1,0,0.2C352.7,440.6,353.1,441.6,353.9,442.2
		L353.9,442.2z M354.6,437.8c0.4-0.5,1-0.7,1.6-0.7c0.6,0,1.3,0.2,1.8,0.7c0,0,0,0,0,0l0,0l0,0c0.6,0.5,0.8,1.2,0.8,1.8
		c0,0.5-0.2,1.1-0.6,1.5c-0.9,1-2.4,1-3.4,0.1c-0.5-0.5-0.8-1.1-0.8-1.7C353.9,438.9,354.2,438.3,354.6,437.8z"/>
	<path class="st0" d="M407.6,438.7c0.6,0,1.2-0.4,1.7-0.9c0.4-0.5,0.6-1.4,0.6-2c0-0.1,0-0.2,0-0.2c0-0.4-0.5-1.2-0.6-1.4
		c0.2,0,1.3,0,1.3,0c0.1,0,0.4-0.1,0.5-0.3l0,0c0.1-0.2,0.2-0.7,0.2-1c0,0,0,0,0,0c0-0.1-0.1-0.2-0.1-0.2c-0.1-0.1-0.1-0.1-0.2-0.1
		l0,0l0,0c-0.2,0.2-0.4,0.3-1,0.3c-0.7,0-2.3,0-2.6,0.1c-0.3,0-0.8,0.3-1.2,0.6c-0.7,0.7-1.1,1.7-1,2.7c0,1,0.5,1.6,0.9,2
		C406.5,438.5,407.1,438.8,407.6,438.7z M406.7,434.7L406.7,434.7c0.2-0.4,0.6-0.6,1-0.7c0.2,0,0.6,0,0.7,0.1l0,0l0,0
		c0,0,0.3,0.1,0.3,1c0.1,1.1-0.5,2.4-1.4,2.4c-0.7,0-1-0.4-1.1-1.2C406.2,435.8,406.4,435.2,406.7,434.7z"/>
	<path class="st0" d="M372,430.7c0.9-0.6,1.6-1.5,1.7-2.5c0.2-0.9,0-1.9-0.5-2.7c-1.2-1.8-3.3-2.1-5.2-0.9l-2.3,1.5l4,6L372,430.7z
		 M368.7,425.8c0.6-0.4,1.2-0.5,1.8-0.4c0.6,0.1,1.1,0.5,1.5,1c0.3,0.4,0.4,0.9,0.4,1.3c0,0.1,0,0.3,0,0.4c-0.1,0.6-0.5,1.1-1.1,1.5
		c0,0-1,0.7-1.1,0.7c-0.1-0.1-2.5-3.8-2.6-3.9C367.7,426.4,368.7,425.8,368.7,425.8z"/>
	<path class="st0" d="M398.7,435.3L398.7,435.3L398.7,435.3c0.2-0.1,0.3-0.1,0.4-0.1c0.2,0,0.3,0,0.4,0.1c0,0,0.2,0.3,0.3,1.5
		c0,0.5,0,1.7,0,2.3c0,0,0,0.1,0.2,0.3l0,0l0,0c0.1,0,0.5,0.2,0.7,0.1l0.1,0l0-0.1l0.1-0.2c0.2-2.2,0.4-3,0.7-3.9
		c0.1-0.3,0.3-0.8,0.8-0.9c0.2,0,0.3,0.2,0.4,0.6c0.1,0.5,0.5,5.4,0.5,5.8c0,0.3,0,0.6,0.1,0.7c0.2,0.3,0.9,0.4,1.2,0.4
		c0.1,0,0.3-0.1,0.3-0.2l0-0.2c-0.1-0.2-1-5.5-1.2-6.6l0-0.1c-0.1-0.4-0.1-0.7-0.2-0.9c-0.2-0.6-0.7-0.8-1.2-0.7
		c-0.3,0.1-0.7,0.3-0.9,0.5c-0.4,0.6-0.7,1.2-0.9,2c0-0.3,0-0.6,0-0.7c0-0.4-0.1-0.8-0.3-1l0,0l0,0c-0.2-0.3-0.6-0.4-0.9-0.3
		c-0.1,0-0.7,0.1-0.9,0.8c-0.1,0.2-0.1,0.4,0,0.5C398.4,435.2,398.6,435.3,398.7,435.3z"/>
	<path class="st0" d="M387.3,423c0,0-1.4-4.3-1.5-4.7c0.3,0.2,5.1,3.5,5.1,3.5l1.1-0.4l-2.3-6.9l-1.3,0.4c0,0,1.3,4.1,1.5,4.5
		c-0.3-0.2-5-3.4-5-3.4l-1.2,0.4l2.2,6.9L387.3,423z"/>
	<path class="st0" d="M418.3,438.1L418.3,438.1C418.3,438.1,418.3,438.1,418.3,438.1L418.3,438.1z"/>
	<path class="st0" d="M364.8,512.6c0.8-0.4,1.4-1,1.7-1.9c0.1-0.5,0.1-0.9-0.1-1.3c-0.2-0.4-0.7-1-1.5-1.3c-0.7-0.2-1.3-0.1-2,0.2
		c-0.7,0.3-1.2,0.8-1.5,1.4c-0.3,0.7-0.3,1.3-0.1,1.6c0.1,0.4,0.6,1,1.3,1.3C362.9,512.8,363.8,513,364.8,512.6z M362.2,510.2
		c0-0.5,0.5-0.8,0.7-0.8c0.5-0.2,1-0.2,1.4-0.1c0.5,0.2,0.9,0.5,1.2,1c0.1,0.1,0.1,0.3,0.1,0.4c0,0.3-0.2,0.5-0.3,0.6
		c-0.1,0.1-0.2,0.1-0.3,0.2c-0.5,0.2-1.2,0.3-1.6,0.2c-0.6-0.2-0.9-0.6-1-0.9C362.2,510.5,362.1,510.4,362.2,510.2z"/>
	<path class="st0" d="M367.9,515.3c0,0.1,0.1,0.2,0.3,0.2l0,0c0,0,0,0,0,0c0.1,0,0.4,0,0.5-0.1c0.2-0.1,0.3-0.3,0.3-0.5
		c0-0.1,0-0.3-0.1-0.5c-0.3-0.4-0.6-0.8-1.5-1.2c-0.6-0.3-1.8-0.4-2.8,0.2c-1,0.5-1.2,1.3-1.3,1.5c0,0.2,0,0.7,0.1,1l0.5,0.8
		l0.2,0.3c0,0,0,0.1,0,0.1c0,0-0.1,0.1-0.1,0.1c-0.1,0.1-0.8-0.1-1.3-0.7c-0.2-0.2-0.3-0.2-0.4-0.1h0l0,0c-0.2,0-0.3,0.2-0.4,0.4
		c0,0.1,0,0.2,0,0.2c0,0.1,0,0.2,0.1,0.3c0.2,0.3,0.4,0.5,0.8,0.6c0.6,0.2,1.4,0.1,1.9-0.2c0.3-0.2,0.5-0.4,0.7-0.6
		c0.1-0.1,0.1-0.5,0-0.7l0,0l0,0c-0.1-0.2-0.4-0.7-0.5-0.9c-0.2-0.3-0.2-0.6-0.2-0.8c0.1-0.2,0.2-0.4,0.5-0.5
		C366.1,513.6,367.3,514.3,367.9,515.3L367.9,515.3z"/>
	<path class="st0" d="M368.7,515.4C368.7,515.4,368.7,515.4,368.7,515.4C368.7,515.4,368.7,515.4,368.7,515.4L368.7,515.4z"/>
	<path class="st0" d="M373.2,521.3c-0.4,0-0.5-0.1-0.8-0.4c0,0,0,0,0,0l-0.5-0.6c-0.1-0.1-0.1-0.2-0.1-0.2c0-0.1,0-0.2,0.1-0.3
		c0,0,0.1-0.2,0.1-0.3c0-0.1,0-0.1-0.1-0.2c-0.2-0.2-0.5,0-0.6,0c-0.4,0.2-0.9,0.4-1.5,0.6c-0.1,0-0.2,0.1-0.2,0.3c0,0,0,0,0,0
		c0,0.1,0,0.1,0.1,0.2c0.1,0.1,0.3,0.1,0.4,0.2c0,0,0.1,0,0.1,0c0.3,0,0.3,0,0.6,0.3l0.6,0.7c0.1,0.1,0.1,0.2-0.1,0.4l0,0l0,0
		c0,0.1-0.1,0.3,0,0.5c0.1,0.1,0.2,0.2,0.6,0c0.4-0.2,0.9-0.4,1.4-0.6c0.1,0,0.3-0.2,0.4-0.3c0,0,0,0,0-0.1c0-0.1,0-0.1,0-0.1
		C373.6,521.4,373.4,521.3,373.2,521.3z"/>
	<path class="st0" d="M369.7,520.5L369.7,520.5C369.7,520.5,369.7,520.5,369.7,520.5L369.7,520.5z"/>
	<path class="st0" d="M360.8,501.4c0.4-0.1,0.9-0.5,1.2-0.8c0,0.2,0.1,0.8,0.1,0.8l0.1,0.4c0,0.1,0.2,0.4,0.4,0.5l0,0h0
		c0.2,0.1,0.7,0.1,0.9,0.1h0l0,0c0.1,0,0.2-0.1,0.2-0.2c0-0.1,0-0.1,0-0.2c-0.2-0.2-0.3-0.3-0.4-0.9c-0.1-0.5-0.3-1.6-0.4-2.1l0-0.2
		c-0.1-0.2-0.3-0.7-0.7-1c-0.7-0.5-1.6-0.7-2.6-0.5c-0.9,0.2-1.4,0.7-1.6,1.1c-0.3,0.5-0.4,1.1-0.3,1.5c0.1,0.5,0.5,1,1.1,1.4
		C359.2,501.5,360,501.6,360.8,501.4z M358.6,499.3c0-0.2-0.1-0.4,0.1-0.6c0.1-0.2,0.4-0.4,0.8-0.5c0.4-0.1,1-0.1,1.6,0.2
		c0.3,0.1,0.6,0.4,0.7,0.8c0.1,0.2,0.1,0.4,0.1,0.5c0,0.1,0,0.1,0,0.1c0,0-0.1,0.3-0.9,0.5c-0.7,0.1-1.4,0-1.9-0.3
		C358.9,499.8,358.7,499.6,358.6,499.3z"/>
	<path class="st0" d="M361.2,507.4c0-0.1,0-0.1,0-0.2c-0.1-0.1-0.1-0.2-0.2-0.4l0-0.1c0-0.2,0-0.3,0.1-0.4c0.1-0.1,0.1-0.2,0.2-0.2
		c0.6-0.2,1.7-0.5,2.3-0.5c0,0,0,0,0,0c0,0.1,0.1,0.4,0.1,0.4l0.2,0.8c0,0.1,0.3,0.4,0.4,0.5c0.2,0.1,0.8,0.1,0.9,0.1h0h0
		c0.1,0,0.2-0.2,0.3-0.3c0-0.1,0-0.1-0.1-0.2l0,0l0,0c-0.2-0.1-0.3-0.3-0.4-0.4c0,0-0.4-1.4-0.4-1.4l-0.3-1.2
		c-0.1-0.3-0.5-0.8-0.9-1c-0.4-0.2-0.9-0.3-1.2-0.2c-0.1,0-0.3,0.1-0.3,0.3c0,0,0,0.1,0,0.1c0,0.1,0.2,0.2,0.3,0.3
		c0.6,0.2,0.8,0.6,0.8,0.7c0,0,0.1,0.4,0.1,0.4s0.1,0.2,0.1,0.3c-0.1,0-0.4,0.1-0.4,0.1c-1,0.1-2.1,0.3-2.5,0.4
		c-0.9,0.3-1.1,0.7-1.1,1c0,0.1,0,0.2,0,0.2c0.2,0.5,0.8,1,1.5,1C361,507.7,361.2,507.5,361.2,507.4z"/>
	<path class="st0" d="M358,497C357.9,497,357.9,497,358,497C357.9,497,357.9,497,358,497L358,497z"/>
	<path class="st0" d="M358.4,496.9c0.1-0.1,0.1-0.1,0.1-0.2l0,0l0,0c-0.1-0.1-0.1-0.2-0.1-0.3c0-0.2,0-0.3,0-0.4
		c0,0,0.1-0.1,0.2-0.1c0.3,0,1-0.1,1.7-0.1c0.7,0,1.3,0,1.6-0.1c0.2,0,0.5-0.1,0.5-0.3c0-0.1,0-0.7-0.1-0.8c0,0,0-0.1-0.1-0.1
		c-0.1-0.1-0.2-0.1-0.3-0.1c0,0-1.6,0.2-1.6,0.2l-2,0.3c-0.1,0-0.7,0.1-1,0.3c-0.2,0.1-0.3,0.4-0.3,0.7c0,0,0,0.1,0,0.2
		c0,0.2,0.4,0.8,1,1C358,497.1,358.3,497,358.4,496.9z"/>
	<path class="st0" d="M375.4,424.3L375.4,424.3c0.5,0.9,1.2,1.6,2.1,1.9c0.9,0.3,1.9,0.3,2.9-0.2c1.4-0.7,2.2-2,2.2-3.3
		c0-0.5-0.1-1.1-0.4-1.6c0,0,0-0.1,0-0.1l0,0c-0.9-1.9-3.1-2.6-5-1.7c-0.9,0.4-1.6,1.2-2,2.1c-0.1,0.4-0.2,0.8-0.2,1.2
		C375,423.2,375.2,423.8,375.4,424.3L375.4,424.3z M376.6,421.8c0.2-0.6,0.6-1,1.2-1.3c1.2-0.6,2.5-0.1,3.1,1.2l0,0c0,0,0,0,0,0
		c0.2,0.4,0.3,0.8,0.3,1.1c0,0.9-0.5,1.6-1.3,2.1c-1.2,0.6-2.5,0.1-3.2-1.2c0,0,0,0,0,0c-0.2-0.4-0.3-0.8-0.3-1.1
		C376.4,422.3,376.5,422,376.6,421.8z"/>
	<path class="st0" d="M357.4,493.2c0.5,0.4,1.1,0.8,2.1,0.7c0.8,0,1.5-0.4,2-0.9c0.4-0.4,0.6-0.9,0.6-1.5c0-0.4-0.2-0.9-0.5-1.3
		c-0.6-0.6-1.4-0.9-2.6-0.8l-2.9,0.1c-1.1,0-1.7,0.1-1.8,0.1c-0.2,0-0.6,0.1-0.7,0.4c-0.1,0.3-0.1,0.5-0.1,0.7v0.1l0,0
		c0,0.1,0.2,0.2,0.3,0.3l0.1,0l0.1,0c0.2-0.1,0.4-0.1,0.7-0.2c0,0,0.3,0,0.3,0c0.4-0.1,1.2-0.2,2.1-0.3c-0.2,0.3-0.4,0.5-0.4,0.9
		c0,0,0,0.1,0,0.1C356.7,491.9,356.8,492.6,357.4,493.2L357.4,493.2z M357.9,490.6c0,0,0.2-0.1,0.3-0.1c2.3-0.1,2.6,0.7,2.7,1.5
		c0,0.8-0.7,0.9-1,0.9c-1,0.1-2-0.5-2.1-1.7l0-0.1c0,0,0-0.1,0-0.1C357.8,490.8,357.8,490.7,357.9,490.6z"/>
	<path class="st0" d="M413.9,438.7c0.3,0,1.3-0.1,1.9-0.7c0.4-0.3,1-1.1,1.1-2.2c0-0.1,0-0.1,0-0.2c0-0.9-0.3-1.8-1-2.3
		c-0.4-0.3-0.8-0.5-1.3-0.5c-0.5,0-1.4,0.2-2,0.9c-0.5,0.6-0.8,1.2-0.8,2c-0.1,0.7,0.2,1.5,0.6,2.1
		C413,438.4,413.5,438.7,413.9,438.7z M412.8,436c0-0.5,0.3-1.1,0.6-1.4c0.5-0.5,1.2-0.6,1.6-0.6c0.6,0,0.8,0.6,0.9,0.7
		c0,0.1,0,0.2,0,0.4c0,0.6-0.3,1.3-0.6,1.7c-0.5,0.5-1.1,0.6-1.4,0.5c-0.2,0-0.4,0-0.6-0.2c-0.4-0.2-0.5-0.7-0.5-1
		C412.7,436.1,412.8,436,412.8,436z"/>
	<path class="st0" d="M437,559.8c-0.4,0.7-0.8,1.2-1.6,1.5c-1.2,0.4-2.5-0.3-2.9-1.6c0,0,0,0,0,0c-0.4-1.3,0.2-2.6,1.4-3
		c0.7-0.2,1.3-0.1,2.1,0.2l0.1,0l0.5-1.3l-0.1,0c-1-0.5-1.9-0.5-3-0.2c-2,0.7-3,2.7-2.4,4.7l0,0c0.3,1,1,1.8,1.9,2.2
		c0.9,0.4,1.8,0.5,2.8,0.2c1.4-0.4,2-1.3,2.4-2.1l0-0.1L437,559.8L437,559.8z"/>
	<path class="st0" d="M412.2,562.2c-1.4-0.3-1.6-0.6-1.6-1c0-0.2,0.1-0.3,0.2-0.5c0.2-0.2,0.5-0.3,0.9-0.3c0.6,0,1.3,0.2,1.9,0.7
		l0.1,0l0.8-1.1l-0.1,0c-0.8-0.6-1.6-0.9-2.6-0.9c-1.5,0-2.5,0.9-2.5,2.2c0,1.4,0.9,1.8,2.4,2.2c1.3,0.3,1.5,0.5,1.5,1
		c0,0.5-0.5,0.8-1.2,0.8c-0.8,0-1.4-0.2-2.2-0.9l-0.1,0l-0.8,1l0.1,0c0.9,0.7,1.9,1.1,3,1.1c0.8,0,1.6-0.3,2-0.8
		c0.4-0.4,0.6-0.9,0.5-1.5v0C414.6,563.2,413.9,562.6,412.2,562.2z"/>
	<path class="st0" d="M403.8,558.8l-3.8,7l1.4,0.1c0,0,0.8-1.6,0.9-1.6c0.1,0,3.1,0.3,3.2,0.3c0,0.1,0.6,1.8,0.6,1.8l1.5,0.1
		L405,559L403.8,558.8z M402.9,563.1c0.1-0.2,1.2-2.2,1.3-2.4c0.1,0.3,0.8,2.5,0.9,2.7C404.9,563.3,403.1,563.1,402.9,563.1z"/>
	<path class="st0" d="M421.8,563.6c-0.1-1.1-0.9-1.7-2.6-1.9c-1.4-0.2-1.7-0.4-1.7-0.9c-0.1-0.5,0.3-0.8,1-0.9
		c0.6-0.1,1.3,0.1,2,0.5l0.1,0l0.6-1.1l-0.1,0c-0.8-0.5-1.7-0.7-2.7-0.6c-0.8,0.1-1.4,0.4-1.9,0.9c-0.3,0.4-0.5,0.9-0.4,1.5v0
		c0.2,1.3,1.1,1.7,2.6,1.9c1.4,0.2,1.6,0.4,1.7,0.8v0c0,0.5-0.4,0.8-1.1,0.9c-0.8,0.1-1.5-0.1-2.3-0.7l-0.1-0.1l-0.7,1.1l0.1,0
		c0.9,0.6,2,0.9,3.1,0.8C421,565.9,421.9,565,421.8,563.6L421.8,563.6z"/>
	<path class="st0" d="M337.3,486.4c-1.8,0-3.2,1.4-3.2,3.2c0,1.8,1.5,3.2,3.2,3.2c1.8,0,3.2-1.4,3.2-3.2
		C340.5,487.8,339.1,486.4,337.3,486.4z"/>
	<path class="st0" d="M425.1,557.8l-1.6,7.8l1.4-0.3c0,0,0.3-1.7,0.3-1.8c0.1,0,3.1-0.7,3.2-0.7c0,0.1,1.1,1.5,1.1,1.5l1.4-0.3
		l-4.6-6.5L425.1,557.8z M425.5,562.1c0-0.2,0.5-2.4,0.5-2.7c0.2,0.2,1.5,2.1,1.6,2.3C427.5,561.7,425.7,562,425.5,562.1z"/>
	<path class="st0" d="M352.6,528.7c0,0-4.8,1.2-5.2,1.3c0.3-0.3,3.5-4.1,3.5-4.1l-0.6-1c0,0-4.8,1.1-5.2,1.2c0.3-0.3,3.5-4,3.5-4
		l-0.8-1.3l-4.9,5.9l0.6,1c0,0,4.7-1,5.1-1.1c-0.3,0.3-3.3,4-3.3,4l0.6,1l7.5-1.6L352.6,528.7z"/>
	<path class="st0" d="M362.2,539.7c0,0-3.1,3.1-3.4,3.4c0.1-0.4,0.8-6,0.8-6l-0.9-0.9l-5.1,5.1l1,1c0,0,3.2-3.2,3.5-3.5
		c-0.1,0.4-0.8,6.1-0.8,6.1l0.8,0.8l5.1-5.1L362.2,539.7z"/>
	<path class="st0" d="M368.1,544.9c0,0-1.7,2.2-1.8,2.3c-0.1-0.1-2.4-1.9-2.5-2c0.1-0.1,1.8-2.3,1.8-2.3l-1.1-0.9l-4.5,5.7l1.1,0.9
		c0,0,1.8-2.2,1.9-2.3c0.1,0.1,2.4,1.9,2.5,2c-0.1,0.1-1.9,2.3-1.9,2.3l1.1,0.9l4.5-5.6L368.1,544.9z"/>
	<path class="st0" d="M366.4,552.6l1.2,0.8c0,0,1.5-1,1.5-1c0.1,0,2.7,1.7,2.8,1.7c0,0.1-0.3,1.8-0.3,1.8l1.3,0.8l1.2-7.9l-1.1-0.7
		L366.4,552.6z M372.1,552.7c-0.2-0.1-1.7-1.1-1.9-1.2c0.2-0.1,2-1.4,2.3-1.6C372.4,550.2,372.1,552.5,372.1,552.7z"/>
	<path class="st0" d="M382.8,553.5c0,0-3.1,2-3.3,2.1c0-0.2-0.5-3.9-0.5-3.9l-1.3-0.6l-3.1,6.5l1.2,0.6c0,0,1.9-4,2.1-4.4
		c0.1,0.4,0.6,3.7,0.6,3.7l0.1,0.1c0,0,2.9-1.7,3.3-2c-0.2,0.4-2.1,4.4-2.1,4.4l1.3,0.6l3-6.6L382.8,553.5z"/>
	<path class="st0" d="M383.4,561.5c0,0,0.4,0.1,0.5,0.2c-0.1,0.4-0.5,0.6-1,0.5l-0.1,0l-0.1,0.7l0.1,0c1.1,0.3,1.7,0,2.1-1.1
		l0.4-1.2l-1.4-0.5L383.4,561.5z"/>
	<path class="st0" d="M395.3,560.9c-0.1-0.2-1.4-3.7-1.4-3.7l-1.4-0.3L391,564l1.3,0.3c0,0,0.9-4.3,1-4.8c0.2,0.4,1.4,3.5,1.4,3.5
		l0.1,0c0,0,2.4-2.4,2.7-2.7c-0.1,0.4-1,4.8-1,4.8l1.4,0.3l1.5-7.1l-1.4-0.3C398,558.1,395.5,560.7,395.3,560.9z"/>
	<path class="st0" d="M428.1,436.4L428.1,436.4C428.1,436.4,428.1,436.4,428.1,436.4L428.1,436.4z"/>
	<path class="st0" d="M420.1,432.2L420.1,432.2c0.1,0,0.3-0.1,0.4-0.3c0.2-0.4,0.5-0.5,0.9-0.5c0.4,0.1,0.6,0.2,0.6,0.7
		c0,0.2,0.1,0.5,0.4,0.5l0,0c0.1,0,0.1,0,0.2,0c0.1-0.1,0.2-0.2,0.2-0.4h0c0.1-1.2-0.5-1.7-1.2-1.8c-0.7-0.1-1.5,0.2-1.8,1.3
		c0,0.1,0,0.1,0,0.2c0,0.1,0,0.1,0,0.2C419.9,432.2,420,432.2,420.1,432.2z"/>
	<polygon class="st0" points="428.5,435.9 428.5,435.9 428.5,435.9 	"/>
	<path class="st0" d="M474.3,525.9c-1,1-1.3,1.1-1.7,0.9c0,0,0,0,0,0c-0.4-0.2-0.4-0.8-0.1-1.3c0.3-0.5,0.8-0.9,1.6-1.2l0.1,0
		l-0.5-1.2l-0.1,0c-0.9,0.3-1.6,0.9-2.1,1.8c-0.4,0.7-0.5,1.4-0.4,2c0.1,0.5,0.5,1,0.9,1.2c1.2,0.7,2,0.2,3.1-1c0.9-1,1.3-1,1.7-0.8
		l0,0h0c0.2,0.1,0.3,0.2,0.3,0.4c0,0.1,0,0.1,0,0.2c0,0.2-0.1,0.5-0.3,0.8c-0.4,0.7-1,1.1-1.9,1.4l-0.1,0l0.4,1.2l0.1,0
		c1.1-0.3,2-1,2.5-2c0.8-1.4,0.6-2.7-0.6-3.4C476.3,524.4,475.5,524.7,474.3,525.9z"/>
	<path class="st0" d="M484.8,492.8c1.8,0,3.2-1.4,3.2-3.2c0-1.8-1.4-3.2-3.2-3.2c-1.8,0-3.2,1.4-3.2,3.2
		C481.6,491.4,483,492.8,484.8,492.8z"/>
	<path class="st0" d="M441.7,552.2c0,0,1.2,2.5,1.2,2.7c-0.1,0.1-2.8,1.3-2.9,1.3c-0.1-0.1-1.2-2.7-1.2-2.7l-1.3,0.6l3,6.6l1.3-0.6
		c0,0-1.2-2.6-1.2-2.7c0.1-0.1,2.8-1.3,2.9-1.3c0.1,0.1,1.2,2.7,1.2,2.7l1.3-0.6l-3-6.6L441.7,552.2z"/>
	<path class="st0" d="M348.3,449.9L348.3,449.9L348.3,449.9c1.8,1.3,4,0.9,5.2-0.9c0.8-1.1,0.9-2.3,0.8-3.1l0,0l-2.6-1.7l-1.8,2.6
		l1,0.7c0,0,1-1.4,1-1.5c0.1,0.1,0.9,0.7,1,0.7c0,0,0,0.1,0,0.1c0,0.5-0.2,1-0.5,1.5c-0.4,0.5-0.9,0.9-1.5,1
		c-0.6,0.1-1.3-0.1-1.9-0.5l0,0h0c-0.7-0.5-1.1-1.3-1.1-2c0-0.4,0.1-0.8,0.4-1.2c0.5-0.7,1.1-1,1.7-1.2l0.1,0l-0.4-1.3l-0.1,0
		c-1,0.3-1.7,0.7-2.4,1.7c-0.4,0.6-0.7,1.4-0.7,2.1c0,0.2,0,0.4,0.1,0.7C347,448.5,347.5,449.3,348.3,449.9z"/>
	<path class="st0" d="M424.8,440.4l0.9,0.2l0.5,0.1c0.1,0,0.1,0.1,0.1,0.2c0,0,0,0,0,0.1c-0.1,0.2-0.8,0.5-1.6,0.5
		c-0.2,0-0.3,0.1-0.4,0.2l0,0l0,0c-0.1,0.1-0.1,0.4,0,0.6l0,0l0,0c0.1,0.2,0.3,0.4,0.5,0.4c0.8,0.2,2-0.7,2.4-1.8
		c0.1-0.4,0.1-0.7,0-1c-0.1-0.2-0.2-0.4-0.5-0.5c0,0-1.1-0.3-1.1-0.3c-0.4-0.1-0.6-0.3-0.7-0.5c-0.1-0.2-0.1-0.5,0-0.9
		c0.3-1.1,1.8-1.6,3.1-1.3c0.1,0,0.2,0,0.3-0.1c0.1-0.1,0.3-0.3,0.3-0.5l0,0c0,0,0,0,0,0c0,0,0-0.1,0-0.2c0-0.1,0-0.2-0.1-0.3
		c-0.1-0.2-0.3-0.3-0.6-0.4c-0.6-0.2-1.2-0.1-2,0.2c-0.8,0.3-1.7,1.1-2,2.3c-0.1,0.4-0.1,0.7-0.1,1c0,0.6,0.2,1,0.3,1.2
		C424.1,440,424.5,440.3,424.8,440.4z"/>
	<path class="st0" d="M449.8,547.6l-1.2,0.7l2.1,3.5c0.3,0.5,0.4,1,0.3,1.5c-0.1,0.4-0.4,0.7-0.8,1c-0.9,0.6-1.8,0.3-2.5-0.8
		l-2.1-3.5l-1.2,0.7l2.1,3.6c1,1.7,2.6,2.1,4.3,1.1c1.7-1,2.1-2.6,1-4.4L449.8,547.6z"/>
	<path class="st0" d="M458.5,547.5C458.5,547.5,458.5,547.5,458.5,547.5c-0.7-0.9-1.6-1-3.2-0.3c-1.3,0.5-1.6,0.5-1.9,0.2v0l0,0
		c-0.1-0.1-0.1-0.2-0.1-0.4c0,0,0-0.1,0-0.1c0-0.3,0.2-0.6,0.5-0.8c0.5-0.4,1.1-0.6,1.9-0.6h0.1l0-1.3h-0.1c-1,0-1.8,0.2-2.6,0.8
		c-0.6,0.5-1,1.1-1.1,1.7c0,0.1,0,0.2,0,0.3c0,0.4,0.1,0.8,0.4,1.2c0,0,0,0,0,0c0.8,1.1,1.8,0.9,3.2,0.3c1.2-0.6,1.6-0.5,1.8-0.1
		c0.1,0.2,0.2,0.3,0.1,0.5c0,0.3-0.3,0.6-0.6,0.8c-0.6,0.5-1.3,0.7-2.3,0.6l-0.1,0l-0.1,1.3l0.1,0c1.1,0.1,2.2-0.2,3.1-0.9
		c0.8-0.6,1.2-1.4,1.2-2.1C459,548.3,458.8,547.9,458.5,547.5L458.5,547.5z"/>
	<path class="st0" d="M470.6,528.7l-1.1-0.8l-3.5,4.8l1.1,0.8c0,0,1.3-1.7,1.3-1.8c0.1,0.1,4.8,3.5,4.8,3.5l0.8-1.1
		c0,0-4.7-3.4-4.8-3.5C469.4,530.4,470.6,528.7,470.6,528.7z"/>
	<path class="st0" d="M466.4,534.3l-1-0.9l-3.9,4.4l1,0.9c0,0,1.4-1.6,1.5-1.7c0.1,0.1,4.4,3.9,4.4,3.9l0.9-1c0,0-4.3-3.9-4.4-4
		C465,535.9,466.4,534.3,466.4,534.3z"/>
	<path class="st0" d="M461.8,545.8c-0.1-0.1-1.1-1.2-1.2-1.3c0.1-0.1,2.6-2.4,2.6-2.4l-0.9-0.9c0,0-2.5,2.3-2.6,2.4
		c-0.1-0.1-1.1-1.1-1.2-1.2c0.1-0.1,2.9-2.8,2.9-2.8l-0.9-0.9l-3.9,3.7l5,5.2l4-3.8l-0.9-0.9C464.7,543,461.9,545.7,461.8,545.8z"/>
	<path class="st0" d="M351.8,534.6c0.1,0.1,2.2,2.8,2.2,2.8l1-0.8c0,0-2.1-2.7-2.2-2.8c0.1-0.1,1.2-1,1.3-1c0.1,0.1,2.5,3.1,2.5,3.1
		l1-0.8l-3.4-4.2l-5.6,4.5l3.4,4.2l1-0.8c0,0-2.5-3-2.5-3.2C350.5,535.6,351.7,534.7,351.8,534.6z"/>
	<path class="st0" d="M457.3,436.6l4.8-5.5l-0.7-0.6l-1.9-0.8l-0.5,1.1c0,0,1,0.5,1.2,0.5c-0.1,0.2-3.8,4.4-3.8,4.4L457.3,436.6z"/>
	<path class="st0" d="M460.5,436.7L460.5,436.7c-0.4,0.4-0.6,0.8-0.6,1.3c0,0.7,0.3,1.5,1,2.1c1.2,1.2,2.6,1.4,3.5,0.5
		c0.4-0.3,0.5-0.8,0.5-1.2c0-0.2-0.1-0.5-0.1-0.8c0.7,0.2,1.3,0.1,1.8-0.4c0,0,0,0,0,0c0.3-0.3,0.5-0.8,0.5-1.3v0
		c0-0.7-0.3-1.4-0.9-1.9c-0.6-0.6-1.2-0.9-1.9-0.9c-0.5,0-0.9,0.2-1.3,0.5l0,0c0,0,0,0,0,0c-0.3,0.3-0.5,0.7-0.5,1.2
		c0,0.2,0,0.3,0.1,0.5C461.7,436.1,461.1,436.2,460.5,436.7z M463.9,435.6C463.9,435.6,463.9,435.6,463.9,435.6L463.9,435.6
		c0.2-0.2,0.4-0.2,0.6-0.2c0.3,0,0.6,0.2,0.9,0.4c0.3,0.3,0.4,0.6,0.4,0.9v0c0,0.2-0.1,0.4-0.2,0.6c0,0,0,0,0,0
		c-0.4,0.4-1,0.3-1.5-0.2c-0.3-0.3-0.4-0.6-0.4-0.9C463.6,436,463.7,435.8,463.9,435.6z M463.2,438c0.6,0.6,0.7,1.3,0.3,1.7l0,0
		c-0.4,0.4-1.1,0.3-1.7-0.3c-0.3-0.3-0.5-0.7-0.5-1.1c0-0.2,0.1-0.4,0.2-0.6c0,0,0,0,0,0C461.9,437.2,462.6,437.4,463.2,438z"/>
	<path class="st0" d="M463,484.7c1.4-0.2,4.6-0.3,4.6-0.3c0.2,0,0.6-0.1,0.7-0.4c0.1-0.3,0-0.7,0-0.7v0c0-0.1-0.2-0.3-0.2-0.3
		c-0.1,0-0.2,0-0.2,0c-0.2,0.1-0.4,0.2-0.7,0.2l-0.4,0.1c-0.4,0.1-1.2,0.2-2,0.3c0.2-0.3,0.3-0.5,0.3-0.9c0,0,0-0.1,0-0.1
		c0-0.5-0.3-1.1-0.8-1.6l0,0c-0.4-0.3-1.1-0.7-2.1-0.6c-0.8,0.1-1.5,0.4-2,1c-0.4,0.4-0.5,1-0.5,1.5c0,0.4,0.2,0.9,0.5,1.3
		C460.9,484.6,461.8,484.8,463,484.7z M461.9,481.3c0.6-0.1,1.2,0.1,1.6,0.4c0.4,0.3,0.6,0.7,0.6,1.2l0,0c0,0.2,0,0.4-0.1,0.6
		c0,0-0.2,0.1-0.3,0.1c-1.1,0.1-1.8,0-2.3-0.4c-0.3-0.2-0.4-0.6-0.5-1.1C460.9,481.5,461.6,481.3,461.9,481.3z"/>
	<path class="st0" d="M459.5,490c0,0.2,0.1,0.8,0.6,1.1c0.2,0.1,0.4,0.1,0.5,0.1c0.1,0,0.2-0.1,0.3-0.2l0,0l0-0.2l0-0.2
		c0-0.1,0-0.3,0.2-0.4c0,0,0.3-0.2,1.6,0c0.6,0.1,2,0.4,2.2,0.4l0,0h0c0.1,0,0.2,0,0.3-0.1l-0.1,0c0.1-0.1,0.3-0.5,0.3-0.7v-0.1
		l-0.2-0.2h0c-2-0.6-2.8-0.9-3.6-1.4c-0.7-0.4-0.8-0.9-0.8-0.9c0-0.3,0.4-0.3,0.6-0.3c0.5,0,5.3,0.5,5.7,0.6c0.5,0.1,0.6,0.1,0.7,0
		h0l0,0c0.3-0.1,0.6-0.8,0.6-1.1c0-0.1-0.1-0.3-0.2-0.4l-0.2-0.1c-0.1,0-1.3,0-6.5,0h-0.3c-0.4,0-0.8,0-1,0c-0.6,0.2-1,0.6-1,1
		c0,0.3,0.1,0.7,0.4,1c0.5,0.5,1,0.9,1.8,1.3c-0.3,0-0.7-0.1-0.7-0.1c-0.4,0-0.7-0.1-1,0.1C459.6,489.4,459.5,489.8,459.5,490z"/>
	<path class="st0" d="M341.6,278v-0.3c0-9.6-6.7-14.7-17.4-14.7h-16.5v29.7h17C335.3,292.7,341.6,286.3,341.6,278z"/>
	<path class="st0" d="M454.1,517.3c-0.8-0.6-1.8-0.8-2.7-0.5c-0.5,0.1-0.9,0.4-1.2,0.8c-0.2,0.3-0.4,0.8-0.4,1.4
		c0,0.2,0,0.4,0.1,0.7c0.2,0.8,0.7,1.3,1.3,1.8c0.6,0.4,1.4,0.7,2.1,0.6c0.8-0.1,1.4-0.5,1.6-0.8c0.2-0.3,0.6-1.1,0.4-2
		C455.3,519,455,518,454.1,517.3z M453.7,520.7c-0.1,0.2-0.2,0.3-0.4,0.4c-0.4,0.2-0.9,0-1.2-0.2c-0.4-0.3-0.8-0.8-0.9-1.3
		c0-0.2-0.1-0.3-0.1-0.5c0-0.4,0.1-0.8,0.4-1.1c0.4-0.5,0.9-0.4,1-0.4c0.1,0,0.3,0.1,0.4,0.2c0.5,0.4,0.9,0.9,1,1.4
		C454.2,519.9,453.9,520.5,453.7,520.7z"/>
	<path class="st0" d="M461.9,498.1c-1.4-0.3-2.8,0.3-2.9,0.8c0,0,0,0.2,0,0.4c0,0.1,0.1,0.1,0.1,0.2c0.1,0.1,0.2,0.1,0.3,0
		c0.6-0.3,1.5-0.4,2.1-0.3c1.3,0.3,1.6,0.9,1.5,1.4c-0.1,0.2-0.4,0.5-0.7,0.4c-0.1,0-0.2-0.1-0.3-0.2c-0.2-0.2-0.6-0.4-0.8-0.4
		c-0.4-0.1-0.8,0.2-0.9,0.5c0,0.2,0,0.6,0.1,0.7c0.1,0.2,0.2,0.3,0.4,0.3c0,0,0.3,0,0.3,0l0.5,0.1c0.4,0.1,0.7,0.7,0.6,1.1
		c0,0.2-0.3,0.7-1.1,0.5c-1.1-0.2-1.7-1.3-1.9-1.8l0,0l0,0c-0.1-0.1-0.3-0.3-0.4-0.3c-0.2,0-0.6,0.3-0.7,0.6
		c-0.1,0.2,0.1,0.8,0.4,1.1c0.5,0.6,1.1,1,2.1,1.2c0.8,0.2,1.6,0.1,2.2-0.3c0.4-0.2,0.6-0.5,0.7-0.8c0-0.1,0-0.1,0-0.2
		c0-0.5-0.3-1-0.7-1.4c0.4-0.1,1.1-0.3,1.3-0.9l0,0c0-0.1,0-0.2,0-0.3C464.3,499.7,463.9,498.5,461.9,498.1z"/>
	<path class="st0" d="M464.3,493.6c-0.2,0-0.4,0-0.4,0.1c-0.1,0.1-0.1,0.1-0.1,0.2c0,0.1,0,0.3,0,0.5c0,0.1-0.1,0.3-0.2,0.3
		c-0.1,0.1-0.2,0.1-0.2,0.1c-0.6-0.1-1.7-0.3-2.3-0.5c0,0,0,0,0,0c0-0.1,0.1-0.4,0.1-0.4c0.1-0.3,0.1-0.7,0.1-0.9c0,0,0,0,0-0.1
		c0-0.1,0-0.4-0.2-0.5l0,0c0,0,0,0,0,0c-0.2-0.2-0.7-0.4-0.8-0.5l0,0h0c-0.1,0-0.3,0.1-0.4,0.2c0,0.1,0,0.2,0.1,0.2l0,0
		c0.1,0.2,0.1,0.5,0.1,0.6c0,0-0.2,1.3-0.2,1.3l-0.2,1.4c0,0.3,0.1,0.9,0.3,1.3c0.3,0.4,0.8,0.6,1,0.7c0.1,0,0.2,0,0.3,0
		c0,0,0.1-0.1,0.1-0.2l0,0c0,0,0,0,0,0c0,0,0,0,0-0.1c0-0.1-0.1-0.3-0.2-0.3c-0.3-0.3-0.4-0.6-0.4-0.9c0,0,0-0.1,0-0.1
		c0-0.3,0.1-0.5,0.1-0.7c0.1,0,0.3,0.1,0.3,0.1c1,0.3,2,0.6,2.5,0.7c0.6,0.1,1,0,1.2-0.2c0.2-0.1,0.2-0.3,0.3-0.5
		C465.2,494.5,464.9,493.8,464.3,493.6z"/>
	<path class="st0" d="M458.9,514.9c-0.3-0.2-0.6-0.3-0.8-0.3c-0.2,0-0.5,0.1-0.6,0.3l-0.3,0.5l-0.2,0.4c-0.2,0.3-0.4,0.5-0.6,0.6
		c-0.2,0.1-0.5,0-0.7-0.2c-0.5-0.3-0.8-0.9-0.8-1.6c0-0.5,0.1-1,0.4-1.4c0,0,0.1-0.1,0.1-0.2c0,0,0-0.1,0-0.1c0-0.1-0.2-0.4-0.3-0.4
		l0,0l0,0c-0.3-0.2-0.7,0-0.9,0.4c-0.3,0.5-0.3,1-0.2,1.9c0.1,0.7,0.6,1.7,1.6,2.3c0.9,0.5,1.6,0.4,1.9,0.4c0.2-0.1,0.6-0.3,0.8-0.6
		l0.4-0.8l0.2-0.4c0-0.1,0.1-0.1,0.2,0c0.1,0.1,0.3,0.8,0.1,1.5c-0.1,0.2,0,0.3,0.1,0.4l0,0l0,0c0.2,0.1,0.5,0.1,0.6,0.1h0h0
		c0.2-0.1,0.4-0.2,0.5-0.3C460.4,516.8,459.8,515.4,458.9,514.9z"/>
	<path class="st0" d="M462,506l-0.2-0.2l-0.5-0.5c-0.1-0.1-0.3-0.2-0.5-0.2c-0.1,0-0.2,0.1-0.2,0.2c0,0,0,0.1,0,0.1
		c0,0.2,0.1,0.3,0.2,0.5c0.3,0.4,0.4,0.6,0.4,0.9c0,0.2-0.1,0.5-0.2,0.9l-0.1,0.2c-0.5,1.2-0.8,1.9-1,2.2c-0.3-0.7-1.1-2.3-1.4-3.4
		c0-0.1-0.2-0.2-0.4-0.1h0l0,0c-0.8,0.4-2.5,1.1-3.1,1.3c0.2-0.7,0.8-2.1,0.9-2.4c0.2-0.4,0.3-0.4,0.8-0.4l0.3,0
		c0.2,0,0.4,0,0.5-0.2c0.1-0.2-0.1-0.5-0.3-0.6c-0.4-0.1-0.8-0.5-1.2-0.7c-0.1-0.1-0.2-0.1-0.3,0c-0.1,0-0.2,0.1-0.2,0.2
		c0,0.3,0,0.6-0.2,1.2l-1.1,2.7c0,0-0.6,1.5-0.6,1.5c0,0,0,0.2,0,0.2c0,0.1,0.1,0.1,0.2,0.1c0.2,0,0.4,0,0.5,0
		c0.9-0.4,3.5-1.5,4-1.7c0.2,0.4,1.2,2.7,1.6,3.8l0,0l0,0l0.1,0.2l0.2,0.3h0c0.1,0,0.2,0.1,0.2,0c0.1,0,0.2-0.1,0.2-0.2
		c0,0,0.2-0.6,0.2-0.6l0.2-0.6l0.3-0.8c0.4-1.1,1.1-2.7,1.3-3.2c0-0.1,0-0.1,0-0.2c0-0.1,0-0.3-0.1-0.3
		C462.3,506.3,462.2,506.2,462,506z"/>
	<path class="st0" d="M411,422.7c-36.7,0-66.5,29.8-66.5,66.5c0,36.7,29.8,66.5,66.5,66.5c36.7,0,66.5-29.7,66.5-66.5
		C477.5,452.4,447.7,422.7,411,422.7z M411,553.4c-35.4,0-64.2-28.8-64.2-64.2c0-35.4,28.8-64.2,64.2-64.2
		c35.4,0,64.2,28.8,64.2,64.2C475.2,524.6,446.4,553.4,411,553.4z"/>
	<path class="st0" d="M459,499.3C459,499.3,459,499.3,459,499.3L459,499.3L459,499.3z"/>
	<path class="st0" d="M375.7,521.6c0-0.1,0-0.3,0-0.4c0-1-0.3-1.9-1-2.7c-0.7-0.8-1.8-1.4-2.9-1.5c-1-0.1-2,0.2-2.8,0.9
		c-0.8,0.6-1.3,1.6-1.4,2.6c-0.1,1.1,0.2,2.2,0.9,3.1c0.4,0.6,1.1,1,1.7,1.3c1.4,0.5,2.9,0.3,4-0.6
		C375,523.6,375.6,522.6,375.7,521.6z M373.2,523c-1.3,1-2.2,1.1-2.6,1c-0.5-0.1-0.9-0.3-1.2-0.7c-0.4-0.5-0.6-1.2-0.5-1.9
		c0.1-0.9,0.6-1.8,1.4-2.4c0.8-0.6,1.6-0.9,2.5-0.9c0.4,0,1.1,0.3,1.4,0.7c0.4,0.4,0.6,1,0.6,1.6c0,0.1,0,0.2,0,0.3
		C374.4,521.6,373.9,522.4,373.2,523z"/>
	<path class="st0" d="M421.8,262.9h-21.3v27.9h21.7c10.4,0,16.4-5.6,16.4-13.8v-0.3C438.6,267.7,432.2,262.9,421.8,262.9z"/>
	<polygon class="st0" points="563.2,184.1 578.1,184.1 570.6,166 	"/>
	<path class="st0" d="M243.7,97.3c5.9,0,10-4.6,10-10.4v-0.1c0-5.7-4.2-10.5-10.1-10.5c-5.9,0-10,4.7-10,10.4v0.1
		C233.6,92.6,237.8,97.3,243.7,97.3z"/>
	<path class="st0" d="M355.9,97.3c5.9,0,10-4.6,10-10.4v-0.1c0-5.7-4.2-10.5-10.1-10.5c-5.9,0-10,4.7-10,10.4v0.1
		C345.9,92.6,350.1,97.3,355.9,97.3z"/>
	<path class="st0" d="M767.3,0H54.7C24.6,0,0,24.6,0,54.7v319.1c0,30.1,21.3,66.9,47.3,82l316.3,182.6c26,15,68.6,15,94.7,0
		l316.3-182.6c26-15,47.3-51.9,47.3-82V54.7C822,24.6,797.4,0,767.3,0z M704.2,72.1h21.9v4.6h-16.7v7.7h14.8V89h-14.8V97h16.9v4.6
		h-22.1V72.1z M723.5,179.4v0.2c0,15.7-12.1,27.9-29.7,27.9H672v-55.9h21.8C711.4,151.6,723.5,163.7,723.5,179.4z M678.1,72.1h5.2
		v24.8h15.5v4.7h-20.7V72.1z M648.6,72.1h24v4.8h-9.4v24.7H658V76.9h-9.4V72.1z M621.2,72.1h24v4.8h-9.4v24.7h-5.2V76.9h-9.4V72.1z
		 M590.9,72.1h5.2v16.8c0,5.5,2.8,8.4,7.5,8.4c4.6,0,7.4-2.7,7.4-8.2v-17h5.2v16.8c0,8.8-5,13.3-12.7,13.3c-7.7,0-12.6-4.4-12.6-13
		V72.1z M559.3,72.1h5.2v12.3h14.1V72.1h5.2v29.6h-5.2V89.2h-14.1v12.5h-5.2V72.1z M541.3,89.1c-6.3-1.5-9.8-3.4-9.8-8.8v-0.1
		c0-5.1,4.2-8.6,10.1-8.6c4.3,0,7.7,1.3,10.7,3.7l-2.8,3.9c-2.7-2-5.3-3-8-3c-3,0-4.8,1.6-4.8,3.5v0.1c0,2.3,1.4,3.3,7.1,4.6
		c6.2,1.5,9.5,3.8,9.5,8.7v0.1c0,5.5-4.3,8.8-10.6,8.8c-4.5,0-8.8-1.6-12.3-4.7l3.1-3.7c2.8,2.4,5.7,3.8,9.3,3.8
		c3.2,0,5.2-1.5,5.2-3.7v-0.1C548,91.5,546.8,90.4,541.3,89.1z M536.7,196.3v11.2h-40.1v-55.9h12.3v44.7H536.7z M491.3,72.1h21.9
		v4.6h-16.7v7.7h14.8V89h-14.8V97h16.9v4.6h-22.1V72.1z M456.9,86.8c0-8.3,6.3-15.3,15.2-15.3c5.2,0,8.3,1.4,11.4,4l-3.3,3.9
		c-2.3-1.9-4.5-3.2-8.3-3.2c-5.4,0-9.6,4.8-9.6,10.4v0.1c0,6.1,4,10.6,10.1,10.6c2.8,0,5.3-0.9,7.1-2.2v-5.5H472v-4.5h12.6v12.4
		c-2.9,2.5-7.1,4.6-12.3,4.6C463,102.1,456.9,95.5,456.9,86.8L456.9,86.8z M448.2,185.1v22.4h-12.3v-55.9h12.3v22.1h22.7v-22.1h12.3
		v55.9h-12.3v-22.4H448.2z M463.2,340.9h-25l-20.9-31.1h-16.8v31.1h-21.4v-97.3h44.5c12.4,0,22,3.5,28.4,9.9
		c5.4,5.4,8.3,13.1,8.3,22.2v0.3c0,15.7-8.5,25.6-20.9,30.2L463.2,340.9z M429.9,72.1h21.9v4.6h-16.7v7.7h14.8V89h-14.8V97H452v4.6
		h-22.1V72.1z M403.8,72.1h5.2v24.8h15.5v4.7h-20.7V72.1z M422.1,158.3l-7.7,9.3c-4.3-3.6-8.1-5.7-14.6-5.7c-8.9,0-16,7.9-16,17.4
		v0.2c0,10.2,7,17.7,16.9,17.7c4.5,0,8.5-1.1,11.6-3.4v-8h-12.4v-10.6h24.3v24.3c-5.7,4.9-13.6,8.9-23.9,8.9
		c-17.4,0-29.4-12.2-29.4-28.7v-0.2c0-15.9,12.4-28.9,29.3-28.9C410.3,150.7,416.3,153.4,422.1,158.3z M377.6,72.1h5.2v24.8h15.5
		v4.7h-20.7V72.1z M340.4,86.8c0-8.3,6.4-15.3,15.5-15.3c9.1,0,15.4,6.9,15.4,15.2v0.1c0,8.3-6.4,15.3-15.5,15.3
		C346.8,102.1,340.4,95.3,340.4,86.8L340.4,86.8z M359.4,151.6v55.9h-12.3v-55.9H359.4z M310.1,86.8c0-8.4,6.3-15.3,15.2-15.3
		c5.4,0,8.7,1.9,11.6,4.6l-3.3,3.8c-2.4-2.2-4.9-3.7-8.3-3.7c-5.6,0-9.8,4.6-9.8,10.4v0.1c0,5.8,4.1,10.5,9.8,10.5
		c3.6,0,6-1.4,8.5-3.8l3.3,3.4c-3.1,3.2-6.5,5.2-12,5.2C316.5,102.1,310.1,95.4,310.1,86.8L310.1,86.8z M228.2,86.8
		c0-8.3,6.4-15.3,15.5-15.3c9.1,0,15.4,6.9,15.4,15.2v0.1c0,8.3-6.4,15.3-15.5,15.3C234.5,102.1,228.2,95.3,228.2,86.8L228.2,86.8z
		 M247.1,173.9v10.9h-26.3v11.7h30.3v10.9h-42.5v-55.9h42.1v10.9h-29.9v11.3H247.1z M196.5,72.1h11c9.3,0,15.7,6.4,15.7,14.7v0.1
		c0,8.3-6.4,14.8-15.7,14.8h-11V72.1z M165.9,72.1h13.2c3.7,0,6.6,1.1,8.5,3c1.6,1.6,2.4,3.8,2.4,6.4v0.1c0,4.9-2.9,7.8-7,9l8,11.2
		h-6.2l-7.3-10.3h-6.5v10.3h-5.2V72.1z M182.9,173.7v-22.1h12.3v55.9h-12.3v-22.4h-22.7v22.4h-12.3v-55.9h12.3v22.1H182.9z
		 M128.7,86.8c0-8.3,6.4-15.3,15.5-15.3c9.1,0,15.4,6.9,15.4,15.2v0.1c0,8.3-6.4,15.3-15.5,15.3C135.1,102.1,128.7,95.3,128.7,86.8
		L128.7,86.8z M95.6,86.8c0-8.3,6.3-15.3,15.2-15.3c5.2,0,8.3,1.4,11.4,4l-3.3,3.9c-2.3-1.9-4.5-3.2-8.3-3.2
		c-5.4,0-9.6,4.8-9.6,10.4v0.1c0,6.1,4,10.6,10.1,10.6c2.8,0,5.3-0.9,7.1-2.2v-5.5h-7.6v-4.5h12.6v12.4c-2.9,2.5-7.1,4.6-12.3,4.6
		C101.7,102.1,95.6,95.5,95.6,86.8L95.6,86.8z M92.2,151.6h46.3V163h-17v44.5h-12.3V163h-17V151.6z M165.4,340.9H91.3v-97.3h73.4v19
		h-52.1v19.7h45.9v19h-45.9v20.4h52.8V340.9z M245.2,340.9l-21.8-33.4l-22,33.4h-24.3l33.9-49.5l-32.5-47.8h25l20.3,31.6l20.7-31.6
		h24.3l-32.5,47.5l33.9,49.8H245.2z M270.5,101.6h-5.1V72.1h4.8L286,92.5V72.1h5.1v29.6h-4.3l-16.3-21V101.6z M285.9,151.6h12.3
		v22.1h22.7v-22.1h12.3v55.9h-12.3v-22.4h-22.7v22.4h-12.3V151.6z M307.6,340.9h-21.4v-97.3H326c23.2,0,37.3,13.8,37.3,33.6v0.3
		c0,22.5-17.5,34.2-39.3,34.2h-16.3V340.9z M499.5,502.8c-0.7,0.7-1.4,1.6-1.8,2.6c-0.8,1.9-0.7,4,0.1,5.8l0,0
		c1.9,4.4,2.1,9.5,0.1,14.3c-2,4.8-5.7,8.3-10.1,10v0c-1,0.4-1.9,1-2.7,1.7c-1.5,1.5-2.2,3.5-2.2,5.4h0c0.1,4.8-1.7,9.6-5.4,13.3
		c-3.7,3.7-8.5,5.4-13.2,5.4l0,0c-1,0-2.1,0.1-3.1,0.6c-2,0.8-3.4,2.3-4.1,4.2c-1.8,4.5-5.3,8.2-10.1,10.2c-4.8,2-9.9,1.8-14.3-0.1
		l0,0c-0.9-0.4-2-0.7-3-0.7c-2.1,0-4,0.9-5.4,2.3l0,0c-3.3,3.5-8,5.6-13.2,5.6c-5.2,0-9.8-2.1-13.2-5.6l0,0
		c-0.7-0.7-1.6-1.3-2.5-1.8c-2-0.8-4.1-0.7-5.9,0.1l0,0c-4.4,1.9-9.5,2.1-14.3,0.1c-4.8-2-8.3-5.8-10.1-10.2l0,0
		c-0.4-1-0.9-1.8-1.7-2.6c-1.5-1.5-3.5-2.2-5.5-2.2v0c-4.8,0.1-9.6-1.7-13.2-5.4c-3.7-3.7-5.4-8.5-5.4-13.3h0c0-1-0.2-2.1-0.6-3
		c-0.8-2-2.4-3.4-4.2-4.1l0,0c-4.4-1.8-8.2-5.3-10.2-10c-2-4.8-1.8-9.9,0.1-14.3l0,0c0.4-0.9,0.6-1.9,0.6-3c0-2.2-0.9-4.1-2.4-5.5
		l0,0c-3.4-3.3-5.5-8-5.5-13.2c0-5.1,2.1-9.8,5.5-13.2l0,0c0.7-0.7,1.4-1.5,1.8-2.6c0.8-2,0.7-4.1-0.1-5.9l0,0
		c-1.9-4.4-2.1-9.5-0.1-14.2c2-4.8,5.7-8.3,10.2-10l0,0c1-0.4,1.9-0.9,2.6-1.7c1.5-1.5,2.2-3.5,2.2-5.5h0c-0.1-4.8,1.7-9.6,5.4-13.2
		c3.6-3.6,8.4-5.4,13.2-5.4v0c1,0,2.1-0.1,3.1-0.6c2-0.8,3.4-2.4,4.1-4.3l0,0c1.8-4.4,5.3-8.2,10-10.1c4.8-2,9.9-1.8,14.2,0.1l0,0
		c0.9,0.4,2,0.7,3.1,0.7c2.2,0,4.1-0.9,5.4-2.4l0,0c3.3-3.4,8-5.5,13.2-5.5c5.1,0,9.8,2.1,13.1,5.5l0,0c0.7,0.8,1.6,1.4,2.6,1.8
		c2,0.8,4.1,0.7,5.9-0.1l0,0c4.4-1.9,9.5-2.1,14.3-0.1c4.7,2,8.2,5.7,10,10.1h0c0.4,1,0.9,1.9,1.7,2.7c1.5,1.5,3.5,2.2,5.5,2.2v0
		c4.8-0.1,9.6,1.7,13.3,5.4c3.6,3.6,5.4,8.4,5.4,13.1h0c0,1.1,0.1,2.1,0.6,3.2c0.8,2,2.4,3.4,4.2,4.1l0,0c4.5,1.8,8.2,5.3,10.2,10
		c2,4.8,1.8,9.8-0.1,14.2l0,0c-0.4,1-0.7,2-0.7,3.1c0,2.1,0.9,4,2.3,5.4l0,0c3.4,3.3,5.6,8,5.6,13.2
		C505,494.8,502.9,499.4,499.5,502.8L499.5,502.8z M553.7,340.9h-74.1v-97.3H553v19h-52.1v19.7h45.9v19h-45.9v20.4h52.8V340.9z
		 M553.7,207.5h-12.5l23.9-56.3h11.3l23.9,56.3h-12.8l-5.1-12.5h-23.6L553.7,207.5z M643.1,312.2c0,19.3-14.7,30.2-35.7,30.2
		c-14.7,0-29.6-5.1-41.3-15.6l12.6-15.2c8.8,7.2,17.9,11.8,29.1,11.8c8.8,0,14-3.5,14-9.2V314c0-5.4-3.3-8.2-19.6-12.4
		c-19.6-5-32.2-10.4-32.2-29.7v-0.3c0-17.7,14.2-29.3,34.1-29.3c14.2,0,26.3,4.4,36.1,12.4L629,270.7c-8.6-6-17.1-9.6-25.3-9.6
		c-8.2,0-12.5,3.8-12.5,8.5v0.3c0,6.4,4.2,8.5,21,12.8c19.7,5.1,30.9,12.2,30.9,29.2V312.2z M621.1,172v35.5H609v-55.9h11.3
		l26.2,34.4v-34.4h12.1v55.9h-10.5L621.1,172z M730.6,312.2c0,19.3-14.7,30.2-35.7,30.2c-14.7,0-29.6-5.1-41.3-15.6l12.6-15.2
		c8.8,7.2,17.9,11.8,29.1,11.8c8.8,0,14-3.5,14-9.2V314c0-5.4-3.3-8.2-19.6-12.4c-19.6-5-32.3-10.4-32.3-29.7v-0.3
		c0-17.7,14.2-29.3,34.1-29.3c14.2,0,26.3,4.4,36.1,12.4l-11.1,16.1c-8.6-6-17.1-9.6-25.3-9.6c-8.2,0-12.5,3.8-12.5,8.5v0.3
		c0,6.4,4.2,8.5,21,12.8c19.7,5.1,30.9,12.2,30.9,29.2V312.2z"/>
	<path class="st0" d="M684.3,162.7v33.7h9.5c10.1,0,16.8-6.8,16.8-16.7v-0.2c0-9.9-6.8-16.8-16.8-16.8H684.3z"/>
	<path class="st0" d="M184.8,81.8L184.8,81.8c0-3.3-2.3-5-6.1-5h-7.6v9.9h7.6C182.5,86.7,184.8,84.8,184.8,81.8z"/>
	<path class="st0" d="M467.8,441.7c0,0.1,0,0.2,0,0.3c-0.8-0.4-1.5-0.4-2.1,0.1c0,0,0,0,0,0c-0.4,0.3-0.6,0.8-0.7,1.3
		c-0.1,0.7,0.2,1.5,0.8,2.2c1,1.3,2.4,1.6,3.4,0.9l0,0v0c0.4-0.3,0.6-0.8,0.6-1.4c0-0.2,0-0.4-0.1-0.6c0.7,0.3,1.3,0.2,1.8-0.2
		c0.9-0.7,0.9-2.1,0-3.2c-0.9-1.1-2.2-1.4-3.2-0.8l0,0l0,0C468,440.7,467.8,441.2,467.8,441.7z M468.9,442.1c0-0.2,0.1-0.4,0.3-0.6
		l0,0l0,0c0.2-0.1,0.4-0.2,0.6-0.2c0.3,0,0.6,0.2,0.9,0.5c0.4,0.5,0.4,1.2,0,1.5h0c-0.2,0.1-0.4,0.2-0.7,0.2c-0.3,0-0.6-0.2-0.8-0.5
		c-0.2-0.3-0.3-0.6-0.3-0.8C468.9,442.2,468.9,442.1,468.9,442.1z M468.7,444.8c0,0,0,0.1,0,0.1c0,0.2-0.1,0.4-0.3,0.6l0,0
		c0,0,0,0,0,0c-0.2,0.1-0.4,0.2-0.6,0.2c-0.3-0.1-0.7-0.3-1-0.7c-0.3-0.4-0.5-0.8-0.4-1.1c0-0.2,0.1-0.4,0.3-0.6l0,0
		c0.2-0.1,0.4-0.2,0.6-0.2c0.4,0,0.7,0.3,1,0.7C468.5,444.1,468.7,444.4,468.7,444.8z"/>
	<path class="st0" d="M217.8,86.9L217.8,86.9c0-5.9-4.1-10.1-10.3-10.1h-5.8v20.1h5.8C213.7,96.9,217.8,92.7,217.8,86.9z"/>
	<path class="st0" d="M144.2,97.3c5.9,0,10-4.6,10-10.4v-0.1c0-5.7-4.2-10.5-10.1-10.5c-5.9,0-10,4.7-10,10.4v0.1
		C134.2,92.6,138.4,97.3,144.2,97.3z"/>
	<path class="st0" d="M471.6,448.7c0,0.5,0.2,1,0.5,1.5c0.3,0.5,0.8,0.9,1.4,1c-1.1,0.5-2,0.4-2.5-0.3c-0.3-0.5-0.4-1-0.3-1.7l0-0.1
		l-1.3-0.1l0,0.1c-0.1,0.9,0,1.7,0.5,2.4c0.4,0.7,1,1.1,1.8,1.3c1,0.2,2.1-0.1,3.2-0.8l0,0c1.1-0.7,1.7-1.4,1.9-2.2
		c0.2-0.8,0-1.4-0.4-2.1c-0.4-0.7-1-1.1-1.7-1.3c-0.6-0.1-1.3,0-1.9,0.3l0,0c-0.5,0.3-0.9,0.8-1,1.4
		C471.7,448.4,471.6,448.5,471.6,448.7z M473,448.7c0.1-0.3,0.2-0.5,0.5-0.7l0,0c0.6-0.4,1.3-0.2,1.8,0.5c0.4,0.7,0.3,1.4-0.3,1.8v0
		c-0.3,0.2-0.6,0.2-0.9,0.2c-0.3-0.1-0.6-0.3-0.9-0.7c-0.2-0.3-0.3-0.5-0.3-0.8C473,448.8,473,448.7,473,448.7z"/>
	<path class="st0" d="M411,405.9c-46,0-83.3,37.3-83.3,83.3c0,46,37.3,83.3,83.3,83.3c46,0,83.3-37.3,83.3-83.3
		C494.3,443.2,457,405.9,411,405.9z M411,570.2c-44.8,0-81.1-36.3-81.1-81c0-44.8,36.3-81,81.1-81c44.7,0,81,36.3,81,81
		C492,533.9,455.7,570.2,411,570.2z"/>
	<path class="st0" d="M457,487.9c0.5,0.2,1.4,0.7,1.6,0.8c0,0,0,0,0,0l0,0c0,0,0,0,0,0c0.2,0.1,0.4,0.1,0.5,0
		c0.1-0.1,0.1-0.1,0.1-0.2c0-0.2-0.2-0.4-0.3-0.5c0,0-1.5-1.3-1.8-1.3h0h0c-0.3,0-0.7,0.5-0.7,0.8
		C456.5,487.5,456.7,487.7,457,487.9z"/>
	<path class="st0" d="M421.6,418.4c0,0-3.6-0.4-3.7-0.4c0-0.2,0.7-5.9,0.7-5.9l-1.4-0.2l-0.8,7.2l5.1,0.6L421.6,418.4z"/>
	<polygon class="st0" points="395.3,459.9 397.4,458.8 399.6,459.9 399.2,457.6 400.9,455.9 398.5,455.5 397.4,453.4 396.4,455.5 
		394,455.9 395.7,457.6 	"/>
	<path class="st0" d="M386.8,527.3c-0.7-0.5-1.6-0.3-2.2,0.5c-0.2,0.3-0.1,0.5,0,0.6l0,0l0,0c0.2,0.1,0.4-0.1,0.5-0.1
		c0.4-0.3,0.7-0.3,1-0.1c0.3,0.2,0.4,0.3,0.4,0.6c0,0.1,0,0.2-0.1,0.3c0,0.1,0,0.1,0,0.2c0,0.1,0.1,0.3,0.2,0.3
		c0.1,0.1,0.1,0.1,0.2,0.1c0.1,0,0.3-0.1,0.3-0.3c0.2-0.4,0.3-0.7,0.3-1C387.4,527.9,387.1,527.5,386.8,527.3z"/>
	<path class="st0" d="M428.8,419.9c0,0-3.5-0.8-3.6-0.8c0-0.1,1.3-5.8,1.3-5.8l-1.3-0.3l-1.5,7.1l5,1.1L428.8,419.9z"/>
	<polygon class="st0" points="387.3,466.5 389.4,465.4 391.5,466.5 391.1,464.1 392.8,462.5 390.5,462.1 389.4,460 388.3,462.1 
		385.9,462.5 387.7,464.1 	"/>
	<path class="st0" d="M386.5,529.7C386.5,529.7,386.5,529.6,386.5,529.7C386.5,529.6,386.5,529.6,386.5,529.7L386.5,529.7z"/>
	<polygon class="st0" points="379.2,459.9 381.3,458.8 383.5,459.9 383.1,457.6 384.8,455.9 382.4,455.5 381.3,453.4 380.2,455.5 
		377.9,455.9 379.6,457.6 	"/>
	<path class="st0" d="M410.2,419.1c1,0,2-0.4,2.7-1.1c0.7-0.7,1.1-1.7,1.1-2.7c0-1-0.4-2-1.1-2.7c-0.7-0.7-1.7-1.1-2.7-1
		c-1.1,0-2,0.4-2.7,1.1c-0.7,0.7-1.1,1.7-1.1,2.7v0c0,1,0.4,1.9,1.1,2.6C408.2,418.7,409.2,419.1,410.2,419.1z M408.6,413.6
		c0.4-0.4,1-0.7,1.6-0.7c1.3,0,2.4,1,2.4,2.4v0c0,1.4-1,2.4-2.3,2.4c-1.3,0-2.3-1-2.3-2.4C407.9,414.7,408.1,414,408.6,413.6z"/>
	<path class="st0" d="M385.8,530.9c-0.1-0.1-0.3-0.2-0.5-0.1c-0.1,0-0.1,0.1-0.1,0.2c-0.1,0.4-0.4,1.3-0.5,1.5
		c-1.1,1.7-2.2,1.8-2.8,1.4c-0.3-0.2-0.3-0.5-0.4-0.5c0,0,0-0.2,0.1-0.4c0.3-0.5,1.2-1.5,1.7-1.9c0.1-0.1,0.3-0.4,0.4-0.6
		c0.1-0.4,0-0.8-0.3-1.1c-0.6-0.4-1.6-0.3-1.9,0.1c-0.1,0.1-0.2,0.2-0.1,0.4c0,0.1,0.1,0.1,0.2,0.1l-0.1,0l0.1,0l0.3,0.2
		c0.1,0.1,0.2,0.2,0.2,0.3c0,0.1,0,0.3-0.1,0.4c-0.1,0.1-0.5,0.7-0.9,1.1l-0.6,0.7c-0.1,0.1-0.3,0.4-0.3,0.6
		c-0.1,0.5,0.3,1.3,0.9,1.8c0.2,0.1,0.9,0.4,1.6,0.2c1-0.2,1.9-0.9,2.6-2c0.4-0.6,0.6-1.2,0.6-1.7c0,0,0,0,0,0
		C386,531.3,386,531.1,385.8,530.9z"/>
	<path class="st0" d="M374.6,526.9l0.2,0.1l0.5,0.4c0.1,0.1,0.3,0.2,0.5,0.2c0.3,0,0.5-0.1,0.6-0.3c0.1-0.1,0.1-0.2,0.1-0.3
		c0-0.2-0.1-0.4-0.2-0.5c-0.2-0.2-0.6-0.3-0.9-0.5l-0.3-0.1c0,0-0.1,0-0.1-0.1c0,0,0-0.1,0-0.1c0-0.1,0-0.1,0.1-0.2
		c0.4-0.4,1.2-0.1,1.9,0.5c0.1,0.1,0.2,0.1,0.3,0.1c0.2,0,0.4-0.1,0.5-0.2h0c0.1-0.1,0.1-0.2,0.1-0.3c0,0,0,0,0,0
		c0-0.1-0.1-0.4-0.4-0.7c-0.4-0.4-0.9-0.6-1.5-0.7c-0.6-0.1-1.2,0.1-1.6,0.5c-0.1,0.1-0.2,0.4-0.2,0.7c0,0.1,0,0.3,0.1,0.4
		c-0.4,0-1,0.1-1.4,0.5c-0.2,0.2-0.3,0.6-0.3,0.9c0,0.4,0.2,0.8,0.4,1.1c0.6,0.5,1.3,0.8,1.9,0.7c0.3,0,0.6-0.3,0.7-0.3
		c0.1-0.1,0.1-0.2,0.1-0.3c0-0.1-0.1-0.2-0.2-0.2c-0.6-0.1-1.1-0.5-1.5-0.8c-0.2-0.2-0.4-0.4-0.4-0.6c0,0,0-0.1,0-0.1
		C373.7,526.7,374.1,526.7,374.6,526.9z"/>
	<path class="st0" d="M450.6,431.2l0.7-1.1c0,0-3.3-2.1-3.4-2.2c0.1-0.1,0.9-1.4,0.9-1.5c0.1,0.1,3,1.9,3,1.9l0.7-1.1
		c0,0-2.9-1.8-3-1.9c0.1-0.1,0.8-1.3,0.9-1.4c0.1,0.1,3.4,2.1,3.4,2.1l0.7-1.1l-4.6-2.9l-3.9,6.1L450.6,431.2z"/>
	<path class="st0" d="M381,529.2c0-0.2,0-0.4-0.1-0.6c-0.1-0.4-0.3-0.8-0.7-1.1c-0.3-0.3-1.1-0.6-1.9-0.4c-0.7,0.2-1.3,0.5-1.8,1.1
		c-0.4,0.6-0.7,1.2-0.7,1.9c0.1,1,0.5,1.4,0.6,1.5c0.3,0.2,1,0.6,1.8,0.5c0.4,0,1.3-0.2,2-1.1C380.8,530.5,381,529.8,381,529.2z
		 M380.1,529.6c0,0.1-0.1,0.3-0.2,0.3c-0.3,0.4-0.9,0.8-1.4,0.9c-0.7,0.1-1.2-0.2-1.3-0.4c-0.1-0.1-0.3-0.2-0.3-0.4
		c-0.1-0.1-0.1-0.2-0.1-0.3c0-0.3,0.2-0.6,0.3-0.7c0.3-0.4,0.8-0.6,1.2-0.7c0.6-0.1,1.1,0,1.5,0.4
		C380.2,529,380.2,529.4,380.1,529.6z"/>
	<path class="st0" d="M385.7,530.9C385.7,530.9,385.8,530.9,385.7,530.9L385.7,530.9L385.7,530.9z"/>
	<path class="st0" d="M449.5,517.5c0.1,0,0.4-0.1,0.5-0.2c0.1-0.1,0.1-0.2,0-0.3c0-0.2-0.2-0.3-0.3-0.3c-0.4-0.1-1.5-0.4-2-0.4h0
		c-0.2,0-0.4,0.1-0.5,0.2c-0.1,0.2-0.2,0.5-0.1,0.7c0,0.1,0.1,0.2,0.2,0.3c0.1,0.1,0.3,0.2,0.5,0.2
		C448.3,517.6,448.9,517.5,449.5,517.5z"/>
	<path class="st0" d="M446.2,518.9c-0.1,0-0.2,0-0.3,0.1c-0.1,0.2-0.5,1.2,0.3,1.7c0.5,0.4,1.2,0.3,1.5-0.1c0.1-0.2,0.3-0.6,0-0.8
		c-0.2-0.2-0.5,0-0.6,0.1c-0.1,0.2-0.3,0.3-0.5,0.1c-0.2-0.2-0.2-0.5-0.1-0.8C446.4,519.1,446.3,519,446.2,518.9z"/>
	<path class="st0" d="M451.4,445.8h-80.8c0,36.2-2.4,60.2,32.1,95c2.6,2.6,5.3,5.3,8.3,8c3-2.7,5.7-5.4,8.3-8
		C453.7,506,451.4,482,451.4,445.8z M405.7,539.9c-0.5-0.6-1.1-1.1-1.6-1.7c-20.6-20.9-27.4-37.8-29.6-56h31.2V539.9z M405.7,471.3
		h-32c-0.2-3.8-0.2-7.7-0.2-11.7c0-1.9,0-3.8,0-5.8c0,0,0-2.9,0-4.7h32.2V471.3z M417.9,538.2c-0.5,0.6-1.1,1.1-1.6,1.7v-57.6h31.2
		C445.3,500.4,438.5,517.3,417.9,538.2z M448.4,459.6c0,4,0,7.9-0.2,11.7h-32v-22.2h32.2c0,1.8,0,4.7,0,4.7V459.6z"/>
	<path class="st0" d="M452.1,522.9L452.1,522.9L452,523l0,0c-0.1,0.1-0.1,0.2-0.2,0.3c-0.1,0.1-0.2,0.2-0.3,0.2c0,0-0.1,0-0.2-0.1
		c-0.2-0.2-0.7-0.7-1.2-1.2c-0.5-0.5-1-1-1.2-1.2c-0.3-0.3-0.5-0.2-0.5-0.1c-0.1,0.1-0.5,0.5-0.6,0.7l0,0v0.1c0,0,0,0.2,0.1,0.3
		c0.2,0.2,2.4,2,2.9,2.4c0,0,0.5,0.4,0.9,0.5c0.3,0.1,0.6-0.1,0.8-0.3c0.1-0.1,0.2-0.4,0.2-0.7c0-0.2,0-0.4-0.2-0.7
		C452.5,523,452.3,522.9,452.1,522.9z"/>
	<path class="st0" d="M441,425.9c1.3,0.6,2.4,0.5,3.2,0.3l0,0l1.3-2.8l-2.8-1.4l-0.5,1.1c0,0,1.5,0.7,1.6,0.8
		c-0.1,0.1-0.5,1-0.5,1.1c-0.5,0.1-1.1,0-1.7-0.2c-0.6-0.3-1-0.7-1.2-1.3c-0.1-0.2-0.1-0.5-0.1-0.8c0-0.4,0.1-0.8,0.3-1.2v0v0
		c0.6-1.2,1.9-1.7,3-1.2c0.8,0.4,1.1,0.9,1.4,1.5l0,0.1l1.2-0.6l0-0.1c-0.4-1-1-1.6-2.1-2.1c-1.9-0.9-4.1-0.1-4.9,1.8c0,0,0,0,0,0
		l0,0l0,0c-0.4,0.9-0.5,2-0.2,2.9C439.3,424.7,440,425.4,441,425.9z"/>
	<path class="st0" d="M445.5,521.4L445.5,521.4C445.5,521.5,445.5,521.5,445.5,521.4L445.5,521.4z"/>
	<path class="st0" d="M447.8,528.4c0,0-0.1,0.1-0.1,0.1c-0.4,0.2-0.6,0.4-1,0l-1-1.1l-0.5-0.5l-0.1-0.2c-0.2-0.2-0.4-0.5-0.6-0.7
		c-0.4-0.7-0.6-1.4-0.6-2c0-0.6,0.2-1.1,0.6-1.4c0.3-0.3,0.6-0.5,1-0.6c0.1,0,0.2-0.2,0.2-0.3c0,0,0,0,0-0.1c0-0.1,0-0.1-0.1-0.2
		c-0.1-0.2-0.3-0.2-0.5-0.2c-0.5,0-1.1,0.2-1.5,0.6c-0.5,0.5-0.8,1.2-0.8,2c0,0.5,0.1,1,0.3,1.5c-1.2-0.7-2.5-0.6-3.4,0.2
		c-0.5,0.5-0.9,1.2-0.9,1.8c0,0.1-0.1,0.5,0.1,0.7c0.1,0.1,0.2,0.1,0.2,0.1c0.1,0,0.2-0.1,0.2-0.2c0,0,0.1-0.2,0.1-0.2
		c0.1-0.3,0.3-0.7,0.6-1c0.8-0.8,1.9-0.7,3.2,0.3c0.3,0.2,0.6,0.5,0.8,0.7c0.4,0.4,1.2,1.2,1.5,1.6c0.4,0.5,0.5,0.6,0.1,1.3l0,0
		c-0.1,0.1-0.2,0.5-0.1,0.6c0.2,0.2,0.5,0.1,0.7-0.1c0,0,0.2-0.2,0.2-0.2c0.2-0.2,0.6-0.7,1.2-1.3l0.9-0.8c0.1-0.1,0.2-0.2,0.2-0.4
		c0-0.1,0-0.2-0.1-0.2C448.3,528.3,448,528.3,447.8,528.4z"/>
	<polygon class="st0" points="425.3,455.5 424.3,453.4 423.2,455.5 420.8,455.9 422.5,457.6 422.1,459.9 424.3,458.8 426.4,459.9 
		426,457.6 427.7,455.9 	"/>
	<polygon class="st0" points="441.5,455.5 440.4,453.4 439.3,455.5 436.9,455.9 438.7,457.6 438.3,459.9 440.4,458.8 442.5,459.9 
		442.1,457.6 443.8,455.9 	"/>
	<path class="st0" d="M436.2,422.3c0,0-3.7-1.2-3.8-1.3c0-0.1,0.5-1.5,0.5-1.7c0.1,0,3.4,1.1,3.4,1.1l0.4-1.2c0,0-3.2-1.1-3.4-1.1
		c0-0.1,0.5-1.5,0.5-1.6c0.1,0,3.8,1.3,3.8,1.3l0.4-1.2l-5.1-1.7l-2.3,6.9l5.2,1.7L436.2,422.3z"/>
	<polygon class="st0" points="433.4,462.1 432.3,460 431.3,462.1 428.9,462.5 430.6,464.1 430.2,466.5 432.3,465.4 434.5,466.5 
		434.1,464.1 435.8,462.5 	"/>
</g>
</svg>
