<?xml version="1.0" encoding="utf-8"?>
<!-- Generator: Adobe Illustrator 19.2.1, SVG Export Plug-In . SVG Version: 6.00 Build 0)  -->
<svg version="1.1" id="Layer_1" xmlns="http://www.w3.org/2000/svg" xmlns:xlink="http://www.w3.org/1999/xlink" x="0px" y="0px"
	 viewBox="0 0 100 80" style="enable-background:new 0 0 100 80;" xml:space="preserve">
<style type="text/css">
	.st0{fill:#FFFFFF;}
</style>
<g>
	<path class="st0" d="M100,69.8L100,69.8L100,69.8L100,69.8L100,69.8L100,69.8v-0.1v0v0v-15c0-1.5,0-7.6,0-8.7c0-1.5,0-2.2,0-4.4
		c0-13.1,0-32.7,0-34.8c0-4.3-10.9,6.5-10.9,23.9c0,8.7,2.2,8.7,2.2,8.7s2.2,2.2,2.2,4.3c0,1.9-1.7,21.1-2.1,25.3v0v0
		c0,0.2-0.1,0.5-0.1,0.8c0,2.4,1.9,4.4,4.4,4.4C98,74.2,100,72.2,100,69.8L100,69.8z"/>
	<path class="st0" d="M2.2,67.6l2.2-34.8c0,0-4.3,0-4.3-2.2c0-2.2,0-19.6,0-19.6h2.2v13h2.2v-13h2.2v13h2.2v-13h2.2v13H13v-13h2.2
		c0,0,0,17.4,0,19.6c0,2.2-4.3,2.2-4.3,2.2L13,67.6h-0.1C13,68,13,68.4,13,68.7c0,3-2.4,5.4-5.4,5.4c-3,0-5.4-2.4-5.4-5.4
		c0-0.4,0-0.7,0.1-1.1L2.2,67.6L2.2,67.6z"/>
	<path class="st0" d="M52.2,13.3c-14.4,0-26.1,11.7-26.1,26.1s11.7,26.1,26.1,26.1c14.4,0,26.1-11.7,26.1-26.1S66.6,13.3,52.2,13.3
		L52.2,13.3z"/>
	<path class="st0" d="M52.2,67.6c-15.6,0-28.3-12.6-28.3-28.3c0-15.6,12.7-28.3,28.3-28.3c15.6,0,28.3,12.7,28.3,28.3
		C80.4,55,67.8,67.6,52.2,67.6L52.2,67.6z M52.2,6.8c-18,0-32.6,14.6-32.6,32.6S34.2,72,52.2,72c18,0,32.6-14.6,32.6-32.6
		C84.8,21.4,70.2,6.8,52.2,6.8L52.2,6.8z"/>
</g>
</svg>
